%TF.GenerationSoftware,KiCad,Pcbnew,8.0.2*%
%TF.CreationDate,2024-06-13T18:35:17+05:30*%
%TF.ProjectId,FAC,4641432e-6b69-4636-9164-5f7063625858,rev?*%
%TF.SameCoordinates,Original*%
%TF.FileFunction,Drillmap*%
%TF.FilePolarity,Positive*%
%FSLAX45Y45*%
G04 Gerber Fmt 4.5, Leading zero omitted, Abs format (unit mm)*
G04 Created by KiCad (PCBNEW 8.0.2) date 2024-06-13 18:35:17*
%MOMM*%
%LPD*%
G01*
G04 APERTURE LIST*
%ADD10C,0.050000*%
%ADD11C,0.200000*%
%ADD12C,0.100000*%
%ADD13C,0.180000*%
G04 APERTURE END LIST*
D10*
X12585700Y-7620000D02*
X18681700Y-7620000D01*
X18681700Y-10566400D01*
X12585700Y-10566400D01*
X12585700Y-7620000D01*
D11*
D12*
X13310800Y-9852900D02*
X13340800Y-9882900D01*
X13340800Y-9852900D02*
X13310800Y-9882900D01*
X13526700Y-10056100D02*
X13556700Y-10086100D01*
X13556700Y-10056100D02*
X13526700Y-10086100D01*
X15771100Y-8570200D02*
X15801100Y-8600200D01*
X15801100Y-8570200D02*
X15771100Y-8600200D01*
X15771100Y-8722600D02*
X15801100Y-8752600D01*
X15801100Y-8722600D02*
X15771100Y-8752600D01*
X16482300Y-8408600D02*
X16512300Y-8438600D01*
X16512300Y-8408600D02*
X16482300Y-8438600D01*
X16482300Y-8528600D02*
X16512300Y-8558600D01*
X16512300Y-8528600D02*
X16482300Y-8558600D01*
X16545800Y-9332200D02*
X16575800Y-9362200D01*
X16575800Y-9332200D02*
X16545800Y-9362200D01*
X17079200Y-9306800D02*
X17109200Y-9336800D01*
X17109200Y-9306800D02*
X17079200Y-9336800D01*
X13420800Y-8966200D02*
G75*
G02*
X13350800Y-8966200I-35000J0D01*
G01*
X13350800Y-8966200D02*
G75*
G02*
X13420800Y-8966200I35000J0D01*
G01*
X13420800Y-9728200D02*
G75*
G02*
X13350800Y-9728200I-35000J0D01*
G01*
X13350800Y-9728200D02*
G75*
G02*
X13420800Y-9728200I35000J0D01*
G01*
X13433500Y-9995400D02*
G75*
G02*
X13363500Y-9995400I-35000J0D01*
G01*
X13363500Y-9995400D02*
G75*
G02*
X13433500Y-9995400I35000J0D01*
G01*
X13433500Y-10185400D02*
G75*
G02*
X13363500Y-10185400I-35000J0D01*
G01*
X13363500Y-10185400D02*
G75*
G02*
X13433500Y-10185400I35000J0D01*
G01*
X13789100Y-8978900D02*
G75*
G02*
X13719100Y-8978900I-35000J0D01*
G01*
X13719100Y-8978900D02*
G75*
G02*
X13789100Y-8978900I35000J0D01*
G01*
X14551100Y-8978900D02*
G75*
G02*
X14481100Y-8978900I-35000J0D01*
G01*
X14481100Y-8978900D02*
G75*
G02*
X14551100Y-8978900I35000J0D01*
G01*
X14894000Y-8978900D02*
G75*
G02*
X14824000Y-8978900I-35000J0D01*
G01*
X14824000Y-8978900D02*
G75*
G02*
X14894000Y-8978900I35000J0D01*
G01*
X15656000Y-8978900D02*
G75*
G02*
X15586000Y-8978900I-35000J0D01*
G01*
X15586000Y-8978900D02*
G75*
G02*
X15656000Y-8978900I35000J0D01*
G01*
X13830300Y-9395600D02*
X13830300Y-9475600D01*
X13790300Y-9435600D02*
X13870300Y-9435600D01*
X13830300Y-10157600D02*
X13830300Y-10237600D01*
X13790300Y-10197600D02*
X13870300Y-10197600D01*
X14084300Y-9395600D02*
X14084300Y-9475600D01*
X14044300Y-9435600D02*
X14124300Y-9435600D01*
X14084300Y-10157600D02*
X14084300Y-10237600D01*
X14044300Y-10197600D02*
X14124300Y-10197600D01*
X15354300Y-9395600D02*
X15354300Y-9475600D01*
X15314300Y-9435600D02*
X15394300Y-9435600D01*
X15354300Y-10157600D02*
X15354300Y-10237600D01*
X15314300Y-10197600D02*
X15394300Y-10197600D01*
X15608300Y-9395600D02*
X15608300Y-9475600D01*
X15568300Y-9435600D02*
X15648300Y-9435600D01*
X15608300Y-10157600D02*
X15608300Y-10237600D01*
X15568300Y-10197600D02*
X15648300Y-10197600D01*
X15995300Y-9523100D02*
X15995300Y-9603100D01*
X15955300Y-9563100D02*
X16035300Y-9563100D01*
X16745300Y-9523100D02*
X16745300Y-9603100D01*
X16705300Y-9563100D02*
X16785300Y-9563100D01*
X12799320Y-9649720D02*
X12799320Y-9586080D01*
X12735680Y-9586080D01*
X12735680Y-9649720D01*
X12799320Y-9649720D01*
X12799320Y-10149720D02*
X12799320Y-10086080D01*
X12735680Y-10086080D01*
X12735680Y-10149720D01*
X12799320Y-10149720D01*
X12833420Y-9150420D02*
X12833420Y-9086780D01*
X12769780Y-9086780D01*
X12769780Y-9150420D01*
X12833420Y-9150420D01*
X13049320Y-9899720D02*
X13049320Y-9836080D01*
X12985680Y-9836080D01*
X12985680Y-9899720D01*
X13049320Y-9899720D01*
X13087420Y-9150420D02*
X13087420Y-9086780D01*
X13023780Y-9086780D01*
X13023780Y-9150420D01*
X13087420Y-9150420D01*
X15990220Y-8697220D02*
X15990220Y-8633580D01*
X15926580Y-8633580D01*
X15926580Y-8697220D01*
X15990220Y-8697220D01*
X15990220Y-9197220D02*
X15990220Y-9133580D01*
X15926580Y-9133580D01*
X15926580Y-9197220D01*
X15990220Y-9197220D01*
X16240220Y-8947220D02*
X16240220Y-8883580D01*
X16176580Y-8883580D01*
X16176580Y-8947220D01*
X16240220Y-8947220D01*
X16026700Y-10145350D02*
X16076700Y-10095350D01*
X16026700Y-10045350D01*
X15976700Y-10095350D01*
X16026700Y-10145350D01*
X17526700Y-10145350D02*
X17576700Y-10095350D01*
X17526700Y-10045350D01*
X17476700Y-10095350D01*
X17526700Y-10145350D01*
X17627600Y-9079700D02*
X17677600Y-9029700D01*
X17627600Y-8979700D01*
X17577600Y-9029700D01*
X17627600Y-9079700D01*
X18387600Y-9079700D02*
X18437600Y-9029700D01*
X18387600Y-8979700D01*
X18337600Y-9029700D01*
X18387600Y-9079700D01*
D13*
X14703100Y-8119400D02*
X14883100Y-8299400D01*
X14883100Y-8119400D02*
X14703100Y-8299400D01*
X14883100Y-8209400D02*
G75*
G02*
X14703100Y-8209400I-90000J0D01*
G01*
X14703100Y-8209400D02*
G75*
G02*
X14883100Y-8209400I90000J0D01*
G01*
D11*
X12843977Y-10880384D02*
X12843977Y-10680384D01*
X12843977Y-10680384D02*
X12891596Y-10680384D01*
X12891596Y-10680384D02*
X12920167Y-10689908D01*
X12920167Y-10689908D02*
X12939215Y-10708955D01*
X12939215Y-10708955D02*
X12948739Y-10728003D01*
X12948739Y-10728003D02*
X12958262Y-10766098D01*
X12958262Y-10766098D02*
X12958262Y-10794670D01*
X12958262Y-10794670D02*
X12948739Y-10832765D01*
X12948739Y-10832765D02*
X12939215Y-10851812D01*
X12939215Y-10851812D02*
X12920167Y-10870860D01*
X12920167Y-10870860D02*
X12891596Y-10880384D01*
X12891596Y-10880384D02*
X12843977Y-10880384D01*
X13043977Y-10880384D02*
X13043977Y-10747050D01*
X13043977Y-10785146D02*
X13053501Y-10766098D01*
X13053501Y-10766098D02*
X13063024Y-10756574D01*
X13063024Y-10756574D02*
X13082072Y-10747050D01*
X13082072Y-10747050D02*
X13101120Y-10747050D01*
X13167786Y-10880384D02*
X13167786Y-10747050D01*
X13167786Y-10680384D02*
X13158262Y-10689908D01*
X13158262Y-10689908D02*
X13167786Y-10699431D01*
X13167786Y-10699431D02*
X13177310Y-10689908D01*
X13177310Y-10689908D02*
X13167786Y-10680384D01*
X13167786Y-10680384D02*
X13167786Y-10699431D01*
X13291596Y-10880384D02*
X13272548Y-10870860D01*
X13272548Y-10870860D02*
X13263024Y-10851812D01*
X13263024Y-10851812D02*
X13263024Y-10680384D01*
X13396358Y-10880384D02*
X13377310Y-10870860D01*
X13377310Y-10870860D02*
X13367786Y-10851812D01*
X13367786Y-10851812D02*
X13367786Y-10680384D01*
X13624929Y-10880384D02*
X13624929Y-10680384D01*
X13624929Y-10680384D02*
X13691596Y-10823241D01*
X13691596Y-10823241D02*
X13758262Y-10680384D01*
X13758262Y-10680384D02*
X13758262Y-10880384D01*
X13939215Y-10880384D02*
X13939215Y-10775622D01*
X13939215Y-10775622D02*
X13929691Y-10756574D01*
X13929691Y-10756574D02*
X13910643Y-10747050D01*
X13910643Y-10747050D02*
X13872548Y-10747050D01*
X13872548Y-10747050D02*
X13853501Y-10756574D01*
X13939215Y-10870860D02*
X13920167Y-10880384D01*
X13920167Y-10880384D02*
X13872548Y-10880384D01*
X13872548Y-10880384D02*
X13853501Y-10870860D01*
X13853501Y-10870860D02*
X13843977Y-10851812D01*
X13843977Y-10851812D02*
X13843977Y-10832765D01*
X13843977Y-10832765D02*
X13853501Y-10813717D01*
X13853501Y-10813717D02*
X13872548Y-10804193D01*
X13872548Y-10804193D02*
X13920167Y-10804193D01*
X13920167Y-10804193D02*
X13939215Y-10794670D01*
X14034453Y-10747050D02*
X14034453Y-10947050D01*
X14034453Y-10756574D02*
X14053501Y-10747050D01*
X14053501Y-10747050D02*
X14091596Y-10747050D01*
X14091596Y-10747050D02*
X14110643Y-10756574D01*
X14110643Y-10756574D02*
X14120167Y-10766098D01*
X14120167Y-10766098D02*
X14129691Y-10785146D01*
X14129691Y-10785146D02*
X14129691Y-10842289D01*
X14129691Y-10842289D02*
X14120167Y-10861336D01*
X14120167Y-10861336D02*
X14110643Y-10870860D01*
X14110643Y-10870860D02*
X14091596Y-10880384D01*
X14091596Y-10880384D02*
X14053501Y-10880384D01*
X14053501Y-10880384D02*
X14034453Y-10870860D01*
X14215405Y-10861336D02*
X14224929Y-10870860D01*
X14224929Y-10870860D02*
X14215405Y-10880384D01*
X14215405Y-10880384D02*
X14205882Y-10870860D01*
X14205882Y-10870860D02*
X14215405Y-10861336D01*
X14215405Y-10861336D02*
X14215405Y-10880384D01*
X14215405Y-10756574D02*
X14224929Y-10766098D01*
X14224929Y-10766098D02*
X14215405Y-10775622D01*
X14215405Y-10775622D02*
X14205882Y-10766098D01*
X14205882Y-10766098D02*
X14215405Y-10756574D01*
X14215405Y-10756574D02*
X14215405Y-10775622D01*
D12*
X12553200Y-11193900D02*
X12583200Y-11223900D01*
X12583200Y-11193900D02*
X12553200Y-11223900D01*
D11*
X12882072Y-11100384D02*
X12901120Y-11100384D01*
X12901120Y-11100384D02*
X12920167Y-11109908D01*
X12920167Y-11109908D02*
X12929691Y-11119431D01*
X12929691Y-11119431D02*
X12939215Y-11138479D01*
X12939215Y-11138479D02*
X12948739Y-11176574D01*
X12948739Y-11176574D02*
X12948739Y-11224193D01*
X12948739Y-11224193D02*
X12939215Y-11262288D01*
X12939215Y-11262288D02*
X12929691Y-11281336D01*
X12929691Y-11281336D02*
X12920167Y-11290860D01*
X12920167Y-11290860D02*
X12901120Y-11300384D01*
X12901120Y-11300384D02*
X12882072Y-11300384D01*
X12882072Y-11300384D02*
X12863024Y-11290860D01*
X12863024Y-11290860D02*
X12853501Y-11281336D01*
X12853501Y-11281336D02*
X12843977Y-11262288D01*
X12843977Y-11262288D02*
X12834453Y-11224193D01*
X12834453Y-11224193D02*
X12834453Y-11176574D01*
X12834453Y-11176574D02*
X12843977Y-11138479D01*
X12843977Y-11138479D02*
X12853501Y-11119431D01*
X12853501Y-11119431D02*
X12863024Y-11109908D01*
X12863024Y-11109908D02*
X12882072Y-11100384D01*
X13034453Y-11281336D02*
X13043977Y-11290860D01*
X13043977Y-11290860D02*
X13034453Y-11300384D01*
X13034453Y-11300384D02*
X13024929Y-11290860D01*
X13024929Y-11290860D02*
X13034453Y-11281336D01*
X13034453Y-11281336D02*
X13034453Y-11300384D01*
X13110643Y-11100384D02*
X13234453Y-11100384D01*
X13234453Y-11100384D02*
X13167786Y-11176574D01*
X13167786Y-11176574D02*
X13196358Y-11176574D01*
X13196358Y-11176574D02*
X13215405Y-11186098D01*
X13215405Y-11186098D02*
X13224929Y-11195622D01*
X13224929Y-11195622D02*
X13234453Y-11214669D01*
X13234453Y-11214669D02*
X13234453Y-11262288D01*
X13234453Y-11262288D02*
X13224929Y-11281336D01*
X13224929Y-11281336D02*
X13215405Y-11290860D01*
X13215405Y-11290860D02*
X13196358Y-11300384D01*
X13196358Y-11300384D02*
X13139215Y-11300384D01*
X13139215Y-11300384D02*
X13120167Y-11290860D01*
X13120167Y-11290860D02*
X13110643Y-11281336D01*
X13358262Y-11100384D02*
X13377310Y-11100384D01*
X13377310Y-11100384D02*
X13396358Y-11109908D01*
X13396358Y-11109908D02*
X13405882Y-11119431D01*
X13405882Y-11119431D02*
X13415405Y-11138479D01*
X13415405Y-11138479D02*
X13424929Y-11176574D01*
X13424929Y-11176574D02*
X13424929Y-11224193D01*
X13424929Y-11224193D02*
X13415405Y-11262288D01*
X13415405Y-11262288D02*
X13405882Y-11281336D01*
X13405882Y-11281336D02*
X13396358Y-11290860D01*
X13396358Y-11290860D02*
X13377310Y-11300384D01*
X13377310Y-11300384D02*
X13358262Y-11300384D01*
X13358262Y-11300384D02*
X13339215Y-11290860D01*
X13339215Y-11290860D02*
X13329691Y-11281336D01*
X13329691Y-11281336D02*
X13320167Y-11262288D01*
X13320167Y-11262288D02*
X13310643Y-11224193D01*
X13310643Y-11224193D02*
X13310643Y-11176574D01*
X13310643Y-11176574D02*
X13320167Y-11138479D01*
X13320167Y-11138479D02*
X13329691Y-11119431D01*
X13329691Y-11119431D02*
X13339215Y-11109908D01*
X13339215Y-11109908D02*
X13358262Y-11100384D01*
X13548739Y-11100384D02*
X13567786Y-11100384D01*
X13567786Y-11100384D02*
X13586834Y-11109908D01*
X13586834Y-11109908D02*
X13596358Y-11119431D01*
X13596358Y-11119431D02*
X13605882Y-11138479D01*
X13605882Y-11138479D02*
X13615405Y-11176574D01*
X13615405Y-11176574D02*
X13615405Y-11224193D01*
X13615405Y-11224193D02*
X13605882Y-11262288D01*
X13605882Y-11262288D02*
X13596358Y-11281336D01*
X13596358Y-11281336D02*
X13586834Y-11290860D01*
X13586834Y-11290860D02*
X13567786Y-11300384D01*
X13567786Y-11300384D02*
X13548739Y-11300384D01*
X13548739Y-11300384D02*
X13529691Y-11290860D01*
X13529691Y-11290860D02*
X13520167Y-11281336D01*
X13520167Y-11281336D02*
X13510643Y-11262288D01*
X13510643Y-11262288D02*
X13501120Y-11224193D01*
X13501120Y-11224193D02*
X13501120Y-11176574D01*
X13501120Y-11176574D02*
X13510643Y-11138479D01*
X13510643Y-11138479D02*
X13520167Y-11119431D01*
X13520167Y-11119431D02*
X13529691Y-11109908D01*
X13529691Y-11109908D02*
X13548739Y-11100384D01*
X13701120Y-11300384D02*
X13701120Y-11167050D01*
X13701120Y-11186098D02*
X13710643Y-11176574D01*
X13710643Y-11176574D02*
X13729691Y-11167050D01*
X13729691Y-11167050D02*
X13758263Y-11167050D01*
X13758263Y-11167050D02*
X13777310Y-11176574D01*
X13777310Y-11176574D02*
X13786834Y-11195622D01*
X13786834Y-11195622D02*
X13786834Y-11300384D01*
X13786834Y-11195622D02*
X13796358Y-11176574D01*
X13796358Y-11176574D02*
X13815405Y-11167050D01*
X13815405Y-11167050D02*
X13843977Y-11167050D01*
X13843977Y-11167050D02*
X13863024Y-11176574D01*
X13863024Y-11176574D02*
X13872548Y-11195622D01*
X13872548Y-11195622D02*
X13872548Y-11300384D01*
X13967786Y-11300384D02*
X13967786Y-11167050D01*
X13967786Y-11186098D02*
X13977310Y-11176574D01*
X13977310Y-11176574D02*
X13996358Y-11167050D01*
X13996358Y-11167050D02*
X14024929Y-11167050D01*
X14024929Y-11167050D02*
X14043977Y-11176574D01*
X14043977Y-11176574D02*
X14053501Y-11195622D01*
X14053501Y-11195622D02*
X14053501Y-11300384D01*
X14053501Y-11195622D02*
X14063024Y-11176574D01*
X14063024Y-11176574D02*
X14082072Y-11167050D01*
X14082072Y-11167050D02*
X14110643Y-11167050D01*
X14110643Y-11167050D02*
X14129691Y-11176574D01*
X14129691Y-11176574D02*
X14139215Y-11195622D01*
X14139215Y-11195622D02*
X14139215Y-11300384D01*
X14529691Y-11090860D02*
X14358263Y-11348003D01*
X14786834Y-11100384D02*
X14805882Y-11100384D01*
X14805882Y-11100384D02*
X14824929Y-11109908D01*
X14824929Y-11109908D02*
X14834453Y-11119431D01*
X14834453Y-11119431D02*
X14843977Y-11138479D01*
X14843977Y-11138479D02*
X14853501Y-11176574D01*
X14853501Y-11176574D02*
X14853501Y-11224193D01*
X14853501Y-11224193D02*
X14843977Y-11262288D01*
X14843977Y-11262288D02*
X14834453Y-11281336D01*
X14834453Y-11281336D02*
X14824929Y-11290860D01*
X14824929Y-11290860D02*
X14805882Y-11300384D01*
X14805882Y-11300384D02*
X14786834Y-11300384D01*
X14786834Y-11300384D02*
X14767786Y-11290860D01*
X14767786Y-11290860D02*
X14758263Y-11281336D01*
X14758263Y-11281336D02*
X14748739Y-11262288D01*
X14748739Y-11262288D02*
X14739215Y-11224193D01*
X14739215Y-11224193D02*
X14739215Y-11176574D01*
X14739215Y-11176574D02*
X14748739Y-11138479D01*
X14748739Y-11138479D02*
X14758263Y-11119431D01*
X14758263Y-11119431D02*
X14767786Y-11109908D01*
X14767786Y-11109908D02*
X14786834Y-11100384D01*
X14939215Y-11281336D02*
X14948739Y-11290860D01*
X14948739Y-11290860D02*
X14939215Y-11300384D01*
X14939215Y-11300384D02*
X14929691Y-11290860D01*
X14929691Y-11290860D02*
X14939215Y-11281336D01*
X14939215Y-11281336D02*
X14939215Y-11300384D01*
X15072548Y-11100384D02*
X15091596Y-11100384D01*
X15091596Y-11100384D02*
X15110644Y-11109908D01*
X15110644Y-11109908D02*
X15120167Y-11119431D01*
X15120167Y-11119431D02*
X15129691Y-11138479D01*
X15129691Y-11138479D02*
X15139215Y-11176574D01*
X15139215Y-11176574D02*
X15139215Y-11224193D01*
X15139215Y-11224193D02*
X15129691Y-11262288D01*
X15129691Y-11262288D02*
X15120167Y-11281336D01*
X15120167Y-11281336D02*
X15110644Y-11290860D01*
X15110644Y-11290860D02*
X15091596Y-11300384D01*
X15091596Y-11300384D02*
X15072548Y-11300384D01*
X15072548Y-11300384D02*
X15053501Y-11290860D01*
X15053501Y-11290860D02*
X15043977Y-11281336D01*
X15043977Y-11281336D02*
X15034453Y-11262288D01*
X15034453Y-11262288D02*
X15024929Y-11224193D01*
X15024929Y-11224193D02*
X15024929Y-11176574D01*
X15024929Y-11176574D02*
X15034453Y-11138479D01*
X15034453Y-11138479D02*
X15043977Y-11119431D01*
X15043977Y-11119431D02*
X15053501Y-11109908D01*
X15053501Y-11109908D02*
X15072548Y-11100384D01*
X15329691Y-11300384D02*
X15215406Y-11300384D01*
X15272548Y-11300384D02*
X15272548Y-11100384D01*
X15272548Y-11100384D02*
X15253501Y-11128955D01*
X15253501Y-11128955D02*
X15234453Y-11148003D01*
X15234453Y-11148003D02*
X15215406Y-11157527D01*
X15520167Y-11300384D02*
X15405882Y-11300384D01*
X15463025Y-11300384D02*
X15463025Y-11100384D01*
X15463025Y-11100384D02*
X15443977Y-11128955D01*
X15443977Y-11128955D02*
X15424929Y-11148003D01*
X15424929Y-11148003D02*
X15405882Y-11157527D01*
X15634453Y-11186098D02*
X15615406Y-11176574D01*
X15615406Y-11176574D02*
X15605882Y-11167050D01*
X15605882Y-11167050D02*
X15596358Y-11148003D01*
X15596358Y-11148003D02*
X15596358Y-11138479D01*
X15596358Y-11138479D02*
X15605882Y-11119431D01*
X15605882Y-11119431D02*
X15615406Y-11109908D01*
X15615406Y-11109908D02*
X15634453Y-11100384D01*
X15634453Y-11100384D02*
X15672548Y-11100384D01*
X15672548Y-11100384D02*
X15691596Y-11109908D01*
X15691596Y-11109908D02*
X15701120Y-11119431D01*
X15701120Y-11119431D02*
X15710644Y-11138479D01*
X15710644Y-11138479D02*
X15710644Y-11148003D01*
X15710644Y-11148003D02*
X15701120Y-11167050D01*
X15701120Y-11167050D02*
X15691596Y-11176574D01*
X15691596Y-11176574D02*
X15672548Y-11186098D01*
X15672548Y-11186098D02*
X15634453Y-11186098D01*
X15634453Y-11186098D02*
X15615406Y-11195622D01*
X15615406Y-11195622D02*
X15605882Y-11205146D01*
X15605882Y-11205146D02*
X15596358Y-11224193D01*
X15596358Y-11224193D02*
X15596358Y-11262288D01*
X15596358Y-11262288D02*
X15605882Y-11281336D01*
X15605882Y-11281336D02*
X15615406Y-11290860D01*
X15615406Y-11290860D02*
X15634453Y-11300384D01*
X15634453Y-11300384D02*
X15672548Y-11300384D01*
X15672548Y-11300384D02*
X15691596Y-11290860D01*
X15691596Y-11290860D02*
X15701120Y-11281336D01*
X15701120Y-11281336D02*
X15710644Y-11262288D01*
X15710644Y-11262288D02*
X15710644Y-11224193D01*
X15710644Y-11224193D02*
X15701120Y-11205146D01*
X15701120Y-11205146D02*
X15691596Y-11195622D01*
X15691596Y-11195622D02*
X15672548Y-11186098D01*
X15786834Y-11100384D02*
X15786834Y-11138479D01*
X15863025Y-11100384D02*
X15863025Y-11138479D01*
X16158263Y-11376574D02*
X16148739Y-11367050D01*
X16148739Y-11367050D02*
X16129691Y-11338479D01*
X16129691Y-11338479D02*
X16120168Y-11319431D01*
X16120168Y-11319431D02*
X16110644Y-11290860D01*
X16110644Y-11290860D02*
X16101120Y-11243241D01*
X16101120Y-11243241D02*
X16101120Y-11205146D01*
X16101120Y-11205146D02*
X16110644Y-11157527D01*
X16110644Y-11157527D02*
X16120168Y-11128955D01*
X16120168Y-11128955D02*
X16129691Y-11109908D01*
X16129691Y-11109908D02*
X16148739Y-11081336D01*
X16148739Y-11081336D02*
X16158263Y-11071812D01*
X16263025Y-11186098D02*
X16243977Y-11176574D01*
X16243977Y-11176574D02*
X16234453Y-11167050D01*
X16234453Y-11167050D02*
X16224929Y-11148003D01*
X16224929Y-11148003D02*
X16224929Y-11138479D01*
X16224929Y-11138479D02*
X16234453Y-11119431D01*
X16234453Y-11119431D02*
X16243977Y-11109908D01*
X16243977Y-11109908D02*
X16263025Y-11100384D01*
X16263025Y-11100384D02*
X16301120Y-11100384D01*
X16301120Y-11100384D02*
X16320168Y-11109908D01*
X16320168Y-11109908D02*
X16329691Y-11119431D01*
X16329691Y-11119431D02*
X16339215Y-11138479D01*
X16339215Y-11138479D02*
X16339215Y-11148003D01*
X16339215Y-11148003D02*
X16329691Y-11167050D01*
X16329691Y-11167050D02*
X16320168Y-11176574D01*
X16320168Y-11176574D02*
X16301120Y-11186098D01*
X16301120Y-11186098D02*
X16263025Y-11186098D01*
X16263025Y-11186098D02*
X16243977Y-11195622D01*
X16243977Y-11195622D02*
X16234453Y-11205146D01*
X16234453Y-11205146D02*
X16224929Y-11224193D01*
X16224929Y-11224193D02*
X16224929Y-11262288D01*
X16224929Y-11262288D02*
X16234453Y-11281336D01*
X16234453Y-11281336D02*
X16243977Y-11290860D01*
X16243977Y-11290860D02*
X16263025Y-11300384D01*
X16263025Y-11300384D02*
X16301120Y-11300384D01*
X16301120Y-11300384D02*
X16320168Y-11290860D01*
X16320168Y-11290860D02*
X16329691Y-11281336D01*
X16329691Y-11281336D02*
X16339215Y-11262288D01*
X16339215Y-11262288D02*
X16339215Y-11224193D01*
X16339215Y-11224193D02*
X16329691Y-11205146D01*
X16329691Y-11205146D02*
X16320168Y-11195622D01*
X16320168Y-11195622D02*
X16301120Y-11186098D01*
X16577310Y-11300384D02*
X16577310Y-11100384D01*
X16663025Y-11300384D02*
X16663025Y-11195622D01*
X16663025Y-11195622D02*
X16653501Y-11176574D01*
X16653501Y-11176574D02*
X16634453Y-11167050D01*
X16634453Y-11167050D02*
X16605882Y-11167050D01*
X16605882Y-11167050D02*
X16586834Y-11176574D01*
X16586834Y-11176574D02*
X16577310Y-11186098D01*
X16786834Y-11300384D02*
X16767787Y-11290860D01*
X16767787Y-11290860D02*
X16758263Y-11281336D01*
X16758263Y-11281336D02*
X16748739Y-11262288D01*
X16748739Y-11262288D02*
X16748739Y-11205146D01*
X16748739Y-11205146D02*
X16758263Y-11186098D01*
X16758263Y-11186098D02*
X16767787Y-11176574D01*
X16767787Y-11176574D02*
X16786834Y-11167050D01*
X16786834Y-11167050D02*
X16815406Y-11167050D01*
X16815406Y-11167050D02*
X16834453Y-11176574D01*
X16834453Y-11176574D02*
X16843977Y-11186098D01*
X16843977Y-11186098D02*
X16853501Y-11205146D01*
X16853501Y-11205146D02*
X16853501Y-11262288D01*
X16853501Y-11262288D02*
X16843977Y-11281336D01*
X16843977Y-11281336D02*
X16834453Y-11290860D01*
X16834453Y-11290860D02*
X16815406Y-11300384D01*
X16815406Y-11300384D02*
X16786834Y-11300384D01*
X16967787Y-11300384D02*
X16948739Y-11290860D01*
X16948739Y-11290860D02*
X16939215Y-11271812D01*
X16939215Y-11271812D02*
X16939215Y-11100384D01*
X17120168Y-11290860D02*
X17101120Y-11300384D01*
X17101120Y-11300384D02*
X17063025Y-11300384D01*
X17063025Y-11300384D02*
X17043977Y-11290860D01*
X17043977Y-11290860D02*
X17034453Y-11271812D01*
X17034453Y-11271812D02*
X17034453Y-11195622D01*
X17034453Y-11195622D02*
X17043977Y-11176574D01*
X17043977Y-11176574D02*
X17063025Y-11167050D01*
X17063025Y-11167050D02*
X17101120Y-11167050D01*
X17101120Y-11167050D02*
X17120168Y-11176574D01*
X17120168Y-11176574D02*
X17129692Y-11195622D01*
X17129692Y-11195622D02*
X17129692Y-11214669D01*
X17129692Y-11214669D02*
X17034453Y-11233717D01*
X17205882Y-11290860D02*
X17224930Y-11300384D01*
X17224930Y-11300384D02*
X17263025Y-11300384D01*
X17263025Y-11300384D02*
X17282073Y-11290860D01*
X17282073Y-11290860D02*
X17291596Y-11271812D01*
X17291596Y-11271812D02*
X17291596Y-11262288D01*
X17291596Y-11262288D02*
X17282073Y-11243241D01*
X17282073Y-11243241D02*
X17263025Y-11233717D01*
X17263025Y-11233717D02*
X17234453Y-11233717D01*
X17234453Y-11233717D02*
X17215406Y-11224193D01*
X17215406Y-11224193D02*
X17205882Y-11205146D01*
X17205882Y-11205146D02*
X17205882Y-11195622D01*
X17205882Y-11195622D02*
X17215406Y-11176574D01*
X17215406Y-11176574D02*
X17234453Y-11167050D01*
X17234453Y-11167050D02*
X17263025Y-11167050D01*
X17263025Y-11167050D02*
X17282073Y-11176574D01*
X17358263Y-11376574D02*
X17367787Y-11367050D01*
X17367787Y-11367050D02*
X17386834Y-11338479D01*
X17386834Y-11338479D02*
X17396358Y-11319431D01*
X17396358Y-11319431D02*
X17405882Y-11290860D01*
X17405882Y-11290860D02*
X17415406Y-11243241D01*
X17415406Y-11243241D02*
X17415406Y-11205146D01*
X17415406Y-11205146D02*
X17405882Y-11157527D01*
X17405882Y-11157527D02*
X17396358Y-11128955D01*
X17396358Y-11128955D02*
X17386834Y-11109908D01*
X17386834Y-11109908D02*
X17367787Y-11081336D01*
X17367787Y-11081336D02*
X17358263Y-11071812D01*
D12*
X12583200Y-11472900D02*
G75*
G02*
X12513200Y-11472900I-35000J0D01*
G01*
X12513200Y-11472900D02*
G75*
G02*
X12583200Y-11472900I35000J0D01*
G01*
D11*
X12882072Y-11364384D02*
X12901120Y-11364384D01*
X12901120Y-11364384D02*
X12920167Y-11373908D01*
X12920167Y-11373908D02*
X12929691Y-11383431D01*
X12929691Y-11383431D02*
X12939215Y-11402479D01*
X12939215Y-11402479D02*
X12948739Y-11440574D01*
X12948739Y-11440574D02*
X12948739Y-11488193D01*
X12948739Y-11488193D02*
X12939215Y-11526288D01*
X12939215Y-11526288D02*
X12929691Y-11545336D01*
X12929691Y-11545336D02*
X12920167Y-11554860D01*
X12920167Y-11554860D02*
X12901120Y-11564384D01*
X12901120Y-11564384D02*
X12882072Y-11564384D01*
X12882072Y-11564384D02*
X12863024Y-11554860D01*
X12863024Y-11554860D02*
X12853501Y-11545336D01*
X12853501Y-11545336D02*
X12843977Y-11526288D01*
X12843977Y-11526288D02*
X12834453Y-11488193D01*
X12834453Y-11488193D02*
X12834453Y-11440574D01*
X12834453Y-11440574D02*
X12843977Y-11402479D01*
X12843977Y-11402479D02*
X12853501Y-11383431D01*
X12853501Y-11383431D02*
X12863024Y-11373908D01*
X12863024Y-11373908D02*
X12882072Y-11364384D01*
X13034453Y-11545336D02*
X13043977Y-11554860D01*
X13043977Y-11554860D02*
X13034453Y-11564384D01*
X13034453Y-11564384D02*
X13024929Y-11554860D01*
X13024929Y-11554860D02*
X13034453Y-11545336D01*
X13034453Y-11545336D02*
X13034453Y-11564384D01*
X13110643Y-11364384D02*
X13243977Y-11364384D01*
X13243977Y-11364384D02*
X13158262Y-11564384D01*
X13358262Y-11364384D02*
X13377310Y-11364384D01*
X13377310Y-11364384D02*
X13396358Y-11373908D01*
X13396358Y-11373908D02*
X13405882Y-11383431D01*
X13405882Y-11383431D02*
X13415405Y-11402479D01*
X13415405Y-11402479D02*
X13424929Y-11440574D01*
X13424929Y-11440574D02*
X13424929Y-11488193D01*
X13424929Y-11488193D02*
X13415405Y-11526288D01*
X13415405Y-11526288D02*
X13405882Y-11545336D01*
X13405882Y-11545336D02*
X13396358Y-11554860D01*
X13396358Y-11554860D02*
X13377310Y-11564384D01*
X13377310Y-11564384D02*
X13358262Y-11564384D01*
X13358262Y-11564384D02*
X13339215Y-11554860D01*
X13339215Y-11554860D02*
X13329691Y-11545336D01*
X13329691Y-11545336D02*
X13320167Y-11526288D01*
X13320167Y-11526288D02*
X13310643Y-11488193D01*
X13310643Y-11488193D02*
X13310643Y-11440574D01*
X13310643Y-11440574D02*
X13320167Y-11402479D01*
X13320167Y-11402479D02*
X13329691Y-11383431D01*
X13329691Y-11383431D02*
X13339215Y-11373908D01*
X13339215Y-11373908D02*
X13358262Y-11364384D01*
X13548739Y-11364384D02*
X13567786Y-11364384D01*
X13567786Y-11364384D02*
X13586834Y-11373908D01*
X13586834Y-11373908D02*
X13596358Y-11383431D01*
X13596358Y-11383431D02*
X13605882Y-11402479D01*
X13605882Y-11402479D02*
X13615405Y-11440574D01*
X13615405Y-11440574D02*
X13615405Y-11488193D01*
X13615405Y-11488193D02*
X13605882Y-11526288D01*
X13605882Y-11526288D02*
X13596358Y-11545336D01*
X13596358Y-11545336D02*
X13586834Y-11554860D01*
X13586834Y-11554860D02*
X13567786Y-11564384D01*
X13567786Y-11564384D02*
X13548739Y-11564384D01*
X13548739Y-11564384D02*
X13529691Y-11554860D01*
X13529691Y-11554860D02*
X13520167Y-11545336D01*
X13520167Y-11545336D02*
X13510643Y-11526288D01*
X13510643Y-11526288D02*
X13501120Y-11488193D01*
X13501120Y-11488193D02*
X13501120Y-11440574D01*
X13501120Y-11440574D02*
X13510643Y-11402479D01*
X13510643Y-11402479D02*
X13520167Y-11383431D01*
X13520167Y-11383431D02*
X13529691Y-11373908D01*
X13529691Y-11373908D02*
X13548739Y-11364384D01*
X13701120Y-11564384D02*
X13701120Y-11431050D01*
X13701120Y-11450098D02*
X13710643Y-11440574D01*
X13710643Y-11440574D02*
X13729691Y-11431050D01*
X13729691Y-11431050D02*
X13758263Y-11431050D01*
X13758263Y-11431050D02*
X13777310Y-11440574D01*
X13777310Y-11440574D02*
X13786834Y-11459622D01*
X13786834Y-11459622D02*
X13786834Y-11564384D01*
X13786834Y-11459622D02*
X13796358Y-11440574D01*
X13796358Y-11440574D02*
X13815405Y-11431050D01*
X13815405Y-11431050D02*
X13843977Y-11431050D01*
X13843977Y-11431050D02*
X13863024Y-11440574D01*
X13863024Y-11440574D02*
X13872548Y-11459622D01*
X13872548Y-11459622D02*
X13872548Y-11564384D01*
X13967786Y-11564384D02*
X13967786Y-11431050D01*
X13967786Y-11450098D02*
X13977310Y-11440574D01*
X13977310Y-11440574D02*
X13996358Y-11431050D01*
X13996358Y-11431050D02*
X14024929Y-11431050D01*
X14024929Y-11431050D02*
X14043977Y-11440574D01*
X14043977Y-11440574D02*
X14053501Y-11459622D01*
X14053501Y-11459622D02*
X14053501Y-11564384D01*
X14053501Y-11459622D02*
X14063024Y-11440574D01*
X14063024Y-11440574D02*
X14082072Y-11431050D01*
X14082072Y-11431050D02*
X14110643Y-11431050D01*
X14110643Y-11431050D02*
X14129691Y-11440574D01*
X14129691Y-11440574D02*
X14139215Y-11459622D01*
X14139215Y-11459622D02*
X14139215Y-11564384D01*
X14529691Y-11354860D02*
X14358263Y-11612003D01*
X14786834Y-11364384D02*
X14805882Y-11364384D01*
X14805882Y-11364384D02*
X14824929Y-11373908D01*
X14824929Y-11373908D02*
X14834453Y-11383431D01*
X14834453Y-11383431D02*
X14843977Y-11402479D01*
X14843977Y-11402479D02*
X14853501Y-11440574D01*
X14853501Y-11440574D02*
X14853501Y-11488193D01*
X14853501Y-11488193D02*
X14843977Y-11526288D01*
X14843977Y-11526288D02*
X14834453Y-11545336D01*
X14834453Y-11545336D02*
X14824929Y-11554860D01*
X14824929Y-11554860D02*
X14805882Y-11564384D01*
X14805882Y-11564384D02*
X14786834Y-11564384D01*
X14786834Y-11564384D02*
X14767786Y-11554860D01*
X14767786Y-11554860D02*
X14758263Y-11545336D01*
X14758263Y-11545336D02*
X14748739Y-11526288D01*
X14748739Y-11526288D02*
X14739215Y-11488193D01*
X14739215Y-11488193D02*
X14739215Y-11440574D01*
X14739215Y-11440574D02*
X14748739Y-11402479D01*
X14748739Y-11402479D02*
X14758263Y-11383431D01*
X14758263Y-11383431D02*
X14767786Y-11373908D01*
X14767786Y-11373908D02*
X14786834Y-11364384D01*
X14939215Y-11545336D02*
X14948739Y-11554860D01*
X14948739Y-11554860D02*
X14939215Y-11564384D01*
X14939215Y-11564384D02*
X14929691Y-11554860D01*
X14929691Y-11554860D02*
X14939215Y-11545336D01*
X14939215Y-11545336D02*
X14939215Y-11564384D01*
X15072548Y-11364384D02*
X15091596Y-11364384D01*
X15091596Y-11364384D02*
X15110644Y-11373908D01*
X15110644Y-11373908D02*
X15120167Y-11383431D01*
X15120167Y-11383431D02*
X15129691Y-11402479D01*
X15129691Y-11402479D02*
X15139215Y-11440574D01*
X15139215Y-11440574D02*
X15139215Y-11488193D01*
X15139215Y-11488193D02*
X15129691Y-11526288D01*
X15129691Y-11526288D02*
X15120167Y-11545336D01*
X15120167Y-11545336D02*
X15110644Y-11554860D01*
X15110644Y-11554860D02*
X15091596Y-11564384D01*
X15091596Y-11564384D02*
X15072548Y-11564384D01*
X15072548Y-11564384D02*
X15053501Y-11554860D01*
X15053501Y-11554860D02*
X15043977Y-11545336D01*
X15043977Y-11545336D02*
X15034453Y-11526288D01*
X15034453Y-11526288D02*
X15024929Y-11488193D01*
X15024929Y-11488193D02*
X15024929Y-11440574D01*
X15024929Y-11440574D02*
X15034453Y-11402479D01*
X15034453Y-11402479D02*
X15043977Y-11383431D01*
X15043977Y-11383431D02*
X15053501Y-11373908D01*
X15053501Y-11373908D02*
X15072548Y-11364384D01*
X15215406Y-11383431D02*
X15224929Y-11373908D01*
X15224929Y-11373908D02*
X15243977Y-11364384D01*
X15243977Y-11364384D02*
X15291596Y-11364384D01*
X15291596Y-11364384D02*
X15310644Y-11373908D01*
X15310644Y-11373908D02*
X15320167Y-11383431D01*
X15320167Y-11383431D02*
X15329691Y-11402479D01*
X15329691Y-11402479D02*
X15329691Y-11421527D01*
X15329691Y-11421527D02*
X15320167Y-11450098D01*
X15320167Y-11450098D02*
X15205882Y-11564384D01*
X15205882Y-11564384D02*
X15329691Y-11564384D01*
X15396358Y-11364384D02*
X15529691Y-11364384D01*
X15529691Y-11364384D02*
X15443977Y-11564384D01*
X15691596Y-11364384D02*
X15653501Y-11364384D01*
X15653501Y-11364384D02*
X15634453Y-11373908D01*
X15634453Y-11373908D02*
X15624929Y-11383431D01*
X15624929Y-11383431D02*
X15605882Y-11412003D01*
X15605882Y-11412003D02*
X15596358Y-11450098D01*
X15596358Y-11450098D02*
X15596358Y-11526288D01*
X15596358Y-11526288D02*
X15605882Y-11545336D01*
X15605882Y-11545336D02*
X15615406Y-11554860D01*
X15615406Y-11554860D02*
X15634453Y-11564384D01*
X15634453Y-11564384D02*
X15672548Y-11564384D01*
X15672548Y-11564384D02*
X15691596Y-11554860D01*
X15691596Y-11554860D02*
X15701120Y-11545336D01*
X15701120Y-11545336D02*
X15710644Y-11526288D01*
X15710644Y-11526288D02*
X15710644Y-11478669D01*
X15710644Y-11478669D02*
X15701120Y-11459622D01*
X15701120Y-11459622D02*
X15691596Y-11450098D01*
X15691596Y-11450098D02*
X15672548Y-11440574D01*
X15672548Y-11440574D02*
X15634453Y-11440574D01*
X15634453Y-11440574D02*
X15615406Y-11450098D01*
X15615406Y-11450098D02*
X15605882Y-11459622D01*
X15605882Y-11459622D02*
X15596358Y-11478669D01*
X15786834Y-11364384D02*
X15786834Y-11402479D01*
X15863025Y-11364384D02*
X15863025Y-11402479D01*
X16158263Y-11640574D02*
X16148739Y-11631050D01*
X16148739Y-11631050D02*
X16129691Y-11602479D01*
X16129691Y-11602479D02*
X16120168Y-11583431D01*
X16120168Y-11583431D02*
X16110644Y-11554860D01*
X16110644Y-11554860D02*
X16101120Y-11507241D01*
X16101120Y-11507241D02*
X16101120Y-11469146D01*
X16101120Y-11469146D02*
X16110644Y-11421527D01*
X16110644Y-11421527D02*
X16120168Y-11392955D01*
X16120168Y-11392955D02*
X16129691Y-11373908D01*
X16129691Y-11373908D02*
X16148739Y-11345336D01*
X16148739Y-11345336D02*
X16158263Y-11335812D01*
X16263025Y-11450098D02*
X16243977Y-11440574D01*
X16243977Y-11440574D02*
X16234453Y-11431050D01*
X16234453Y-11431050D02*
X16224929Y-11412003D01*
X16224929Y-11412003D02*
X16224929Y-11402479D01*
X16224929Y-11402479D02*
X16234453Y-11383431D01*
X16234453Y-11383431D02*
X16243977Y-11373908D01*
X16243977Y-11373908D02*
X16263025Y-11364384D01*
X16263025Y-11364384D02*
X16301120Y-11364384D01*
X16301120Y-11364384D02*
X16320168Y-11373908D01*
X16320168Y-11373908D02*
X16329691Y-11383431D01*
X16329691Y-11383431D02*
X16339215Y-11402479D01*
X16339215Y-11402479D02*
X16339215Y-11412003D01*
X16339215Y-11412003D02*
X16329691Y-11431050D01*
X16329691Y-11431050D02*
X16320168Y-11440574D01*
X16320168Y-11440574D02*
X16301120Y-11450098D01*
X16301120Y-11450098D02*
X16263025Y-11450098D01*
X16263025Y-11450098D02*
X16243977Y-11459622D01*
X16243977Y-11459622D02*
X16234453Y-11469146D01*
X16234453Y-11469146D02*
X16224929Y-11488193D01*
X16224929Y-11488193D02*
X16224929Y-11526288D01*
X16224929Y-11526288D02*
X16234453Y-11545336D01*
X16234453Y-11545336D02*
X16243977Y-11554860D01*
X16243977Y-11554860D02*
X16263025Y-11564384D01*
X16263025Y-11564384D02*
X16301120Y-11564384D01*
X16301120Y-11564384D02*
X16320168Y-11554860D01*
X16320168Y-11554860D02*
X16329691Y-11545336D01*
X16329691Y-11545336D02*
X16339215Y-11526288D01*
X16339215Y-11526288D02*
X16339215Y-11488193D01*
X16339215Y-11488193D02*
X16329691Y-11469146D01*
X16329691Y-11469146D02*
X16320168Y-11459622D01*
X16320168Y-11459622D02*
X16301120Y-11450098D01*
X16577310Y-11564384D02*
X16577310Y-11364384D01*
X16663025Y-11564384D02*
X16663025Y-11459622D01*
X16663025Y-11459622D02*
X16653501Y-11440574D01*
X16653501Y-11440574D02*
X16634453Y-11431050D01*
X16634453Y-11431050D02*
X16605882Y-11431050D01*
X16605882Y-11431050D02*
X16586834Y-11440574D01*
X16586834Y-11440574D02*
X16577310Y-11450098D01*
X16786834Y-11564384D02*
X16767787Y-11554860D01*
X16767787Y-11554860D02*
X16758263Y-11545336D01*
X16758263Y-11545336D02*
X16748739Y-11526288D01*
X16748739Y-11526288D02*
X16748739Y-11469146D01*
X16748739Y-11469146D02*
X16758263Y-11450098D01*
X16758263Y-11450098D02*
X16767787Y-11440574D01*
X16767787Y-11440574D02*
X16786834Y-11431050D01*
X16786834Y-11431050D02*
X16815406Y-11431050D01*
X16815406Y-11431050D02*
X16834453Y-11440574D01*
X16834453Y-11440574D02*
X16843977Y-11450098D01*
X16843977Y-11450098D02*
X16853501Y-11469146D01*
X16853501Y-11469146D02*
X16853501Y-11526288D01*
X16853501Y-11526288D02*
X16843977Y-11545336D01*
X16843977Y-11545336D02*
X16834453Y-11554860D01*
X16834453Y-11554860D02*
X16815406Y-11564384D01*
X16815406Y-11564384D02*
X16786834Y-11564384D01*
X16967787Y-11564384D02*
X16948739Y-11554860D01*
X16948739Y-11554860D02*
X16939215Y-11535812D01*
X16939215Y-11535812D02*
X16939215Y-11364384D01*
X17120168Y-11554860D02*
X17101120Y-11564384D01*
X17101120Y-11564384D02*
X17063025Y-11564384D01*
X17063025Y-11564384D02*
X17043977Y-11554860D01*
X17043977Y-11554860D02*
X17034453Y-11535812D01*
X17034453Y-11535812D02*
X17034453Y-11459622D01*
X17034453Y-11459622D02*
X17043977Y-11440574D01*
X17043977Y-11440574D02*
X17063025Y-11431050D01*
X17063025Y-11431050D02*
X17101120Y-11431050D01*
X17101120Y-11431050D02*
X17120168Y-11440574D01*
X17120168Y-11440574D02*
X17129692Y-11459622D01*
X17129692Y-11459622D02*
X17129692Y-11478669D01*
X17129692Y-11478669D02*
X17034453Y-11497717D01*
X17205882Y-11554860D02*
X17224930Y-11564384D01*
X17224930Y-11564384D02*
X17263025Y-11564384D01*
X17263025Y-11564384D02*
X17282073Y-11554860D01*
X17282073Y-11554860D02*
X17291596Y-11535812D01*
X17291596Y-11535812D02*
X17291596Y-11526288D01*
X17291596Y-11526288D02*
X17282073Y-11507241D01*
X17282073Y-11507241D02*
X17263025Y-11497717D01*
X17263025Y-11497717D02*
X17234453Y-11497717D01*
X17234453Y-11497717D02*
X17215406Y-11488193D01*
X17215406Y-11488193D02*
X17205882Y-11469146D01*
X17205882Y-11469146D02*
X17205882Y-11459622D01*
X17205882Y-11459622D02*
X17215406Y-11440574D01*
X17215406Y-11440574D02*
X17234453Y-11431050D01*
X17234453Y-11431050D02*
X17263025Y-11431050D01*
X17263025Y-11431050D02*
X17282073Y-11440574D01*
X17358263Y-11640574D02*
X17367787Y-11631050D01*
X17367787Y-11631050D02*
X17386834Y-11602479D01*
X17386834Y-11602479D02*
X17396358Y-11583431D01*
X17396358Y-11583431D02*
X17405882Y-11554860D01*
X17405882Y-11554860D02*
X17415406Y-11507241D01*
X17415406Y-11507241D02*
X17415406Y-11469146D01*
X17415406Y-11469146D02*
X17405882Y-11421527D01*
X17405882Y-11421527D02*
X17396358Y-11392955D01*
X17396358Y-11392955D02*
X17386834Y-11373908D01*
X17386834Y-11373908D02*
X17367787Y-11345336D01*
X17367787Y-11345336D02*
X17358263Y-11335812D01*
D12*
X12543200Y-11696900D02*
X12543200Y-11776900D01*
X12503200Y-11736900D02*
X12583200Y-11736900D01*
D11*
X12882072Y-11628384D02*
X12901120Y-11628384D01*
X12901120Y-11628384D02*
X12920167Y-11637908D01*
X12920167Y-11637908D02*
X12929691Y-11647431D01*
X12929691Y-11647431D02*
X12939215Y-11666479D01*
X12939215Y-11666479D02*
X12948739Y-11704574D01*
X12948739Y-11704574D02*
X12948739Y-11752193D01*
X12948739Y-11752193D02*
X12939215Y-11790288D01*
X12939215Y-11790288D02*
X12929691Y-11809336D01*
X12929691Y-11809336D02*
X12920167Y-11818860D01*
X12920167Y-11818860D02*
X12901120Y-11828384D01*
X12901120Y-11828384D02*
X12882072Y-11828384D01*
X12882072Y-11828384D02*
X12863024Y-11818860D01*
X12863024Y-11818860D02*
X12853501Y-11809336D01*
X12853501Y-11809336D02*
X12843977Y-11790288D01*
X12843977Y-11790288D02*
X12834453Y-11752193D01*
X12834453Y-11752193D02*
X12834453Y-11704574D01*
X12834453Y-11704574D02*
X12843977Y-11666479D01*
X12843977Y-11666479D02*
X12853501Y-11647431D01*
X12853501Y-11647431D02*
X12863024Y-11637908D01*
X12863024Y-11637908D02*
X12882072Y-11628384D01*
X13034453Y-11809336D02*
X13043977Y-11818860D01*
X13043977Y-11818860D02*
X13034453Y-11828384D01*
X13034453Y-11828384D02*
X13024929Y-11818860D01*
X13024929Y-11818860D02*
X13034453Y-11809336D01*
X13034453Y-11809336D02*
X13034453Y-11828384D01*
X13158262Y-11714098D02*
X13139215Y-11704574D01*
X13139215Y-11704574D02*
X13129691Y-11695050D01*
X13129691Y-11695050D02*
X13120167Y-11676003D01*
X13120167Y-11676003D02*
X13120167Y-11666479D01*
X13120167Y-11666479D02*
X13129691Y-11647431D01*
X13129691Y-11647431D02*
X13139215Y-11637908D01*
X13139215Y-11637908D02*
X13158262Y-11628384D01*
X13158262Y-11628384D02*
X13196358Y-11628384D01*
X13196358Y-11628384D02*
X13215405Y-11637908D01*
X13215405Y-11637908D02*
X13224929Y-11647431D01*
X13224929Y-11647431D02*
X13234453Y-11666479D01*
X13234453Y-11666479D02*
X13234453Y-11676003D01*
X13234453Y-11676003D02*
X13224929Y-11695050D01*
X13224929Y-11695050D02*
X13215405Y-11704574D01*
X13215405Y-11704574D02*
X13196358Y-11714098D01*
X13196358Y-11714098D02*
X13158262Y-11714098D01*
X13158262Y-11714098D02*
X13139215Y-11723622D01*
X13139215Y-11723622D02*
X13129691Y-11733146D01*
X13129691Y-11733146D02*
X13120167Y-11752193D01*
X13120167Y-11752193D02*
X13120167Y-11790288D01*
X13120167Y-11790288D02*
X13129691Y-11809336D01*
X13129691Y-11809336D02*
X13139215Y-11818860D01*
X13139215Y-11818860D02*
X13158262Y-11828384D01*
X13158262Y-11828384D02*
X13196358Y-11828384D01*
X13196358Y-11828384D02*
X13215405Y-11818860D01*
X13215405Y-11818860D02*
X13224929Y-11809336D01*
X13224929Y-11809336D02*
X13234453Y-11790288D01*
X13234453Y-11790288D02*
X13234453Y-11752193D01*
X13234453Y-11752193D02*
X13224929Y-11733146D01*
X13224929Y-11733146D02*
X13215405Y-11723622D01*
X13215405Y-11723622D02*
X13196358Y-11714098D01*
X13358262Y-11628384D02*
X13377310Y-11628384D01*
X13377310Y-11628384D02*
X13396358Y-11637908D01*
X13396358Y-11637908D02*
X13405882Y-11647431D01*
X13405882Y-11647431D02*
X13415405Y-11666479D01*
X13415405Y-11666479D02*
X13424929Y-11704574D01*
X13424929Y-11704574D02*
X13424929Y-11752193D01*
X13424929Y-11752193D02*
X13415405Y-11790288D01*
X13415405Y-11790288D02*
X13405882Y-11809336D01*
X13405882Y-11809336D02*
X13396358Y-11818860D01*
X13396358Y-11818860D02*
X13377310Y-11828384D01*
X13377310Y-11828384D02*
X13358262Y-11828384D01*
X13358262Y-11828384D02*
X13339215Y-11818860D01*
X13339215Y-11818860D02*
X13329691Y-11809336D01*
X13329691Y-11809336D02*
X13320167Y-11790288D01*
X13320167Y-11790288D02*
X13310643Y-11752193D01*
X13310643Y-11752193D02*
X13310643Y-11704574D01*
X13310643Y-11704574D02*
X13320167Y-11666479D01*
X13320167Y-11666479D02*
X13329691Y-11647431D01*
X13329691Y-11647431D02*
X13339215Y-11637908D01*
X13339215Y-11637908D02*
X13358262Y-11628384D01*
X13548739Y-11628384D02*
X13567786Y-11628384D01*
X13567786Y-11628384D02*
X13586834Y-11637908D01*
X13586834Y-11637908D02*
X13596358Y-11647431D01*
X13596358Y-11647431D02*
X13605882Y-11666479D01*
X13605882Y-11666479D02*
X13615405Y-11704574D01*
X13615405Y-11704574D02*
X13615405Y-11752193D01*
X13615405Y-11752193D02*
X13605882Y-11790288D01*
X13605882Y-11790288D02*
X13596358Y-11809336D01*
X13596358Y-11809336D02*
X13586834Y-11818860D01*
X13586834Y-11818860D02*
X13567786Y-11828384D01*
X13567786Y-11828384D02*
X13548739Y-11828384D01*
X13548739Y-11828384D02*
X13529691Y-11818860D01*
X13529691Y-11818860D02*
X13520167Y-11809336D01*
X13520167Y-11809336D02*
X13510643Y-11790288D01*
X13510643Y-11790288D02*
X13501120Y-11752193D01*
X13501120Y-11752193D02*
X13501120Y-11704574D01*
X13501120Y-11704574D02*
X13510643Y-11666479D01*
X13510643Y-11666479D02*
X13520167Y-11647431D01*
X13520167Y-11647431D02*
X13529691Y-11637908D01*
X13529691Y-11637908D02*
X13548739Y-11628384D01*
X13701120Y-11828384D02*
X13701120Y-11695050D01*
X13701120Y-11714098D02*
X13710643Y-11704574D01*
X13710643Y-11704574D02*
X13729691Y-11695050D01*
X13729691Y-11695050D02*
X13758263Y-11695050D01*
X13758263Y-11695050D02*
X13777310Y-11704574D01*
X13777310Y-11704574D02*
X13786834Y-11723622D01*
X13786834Y-11723622D02*
X13786834Y-11828384D01*
X13786834Y-11723622D02*
X13796358Y-11704574D01*
X13796358Y-11704574D02*
X13815405Y-11695050D01*
X13815405Y-11695050D02*
X13843977Y-11695050D01*
X13843977Y-11695050D02*
X13863024Y-11704574D01*
X13863024Y-11704574D02*
X13872548Y-11723622D01*
X13872548Y-11723622D02*
X13872548Y-11828384D01*
X13967786Y-11828384D02*
X13967786Y-11695050D01*
X13967786Y-11714098D02*
X13977310Y-11704574D01*
X13977310Y-11704574D02*
X13996358Y-11695050D01*
X13996358Y-11695050D02*
X14024929Y-11695050D01*
X14024929Y-11695050D02*
X14043977Y-11704574D01*
X14043977Y-11704574D02*
X14053501Y-11723622D01*
X14053501Y-11723622D02*
X14053501Y-11828384D01*
X14053501Y-11723622D02*
X14063024Y-11704574D01*
X14063024Y-11704574D02*
X14082072Y-11695050D01*
X14082072Y-11695050D02*
X14110643Y-11695050D01*
X14110643Y-11695050D02*
X14129691Y-11704574D01*
X14129691Y-11704574D02*
X14139215Y-11723622D01*
X14139215Y-11723622D02*
X14139215Y-11828384D01*
X14529691Y-11618860D02*
X14358263Y-11876003D01*
X14786834Y-11628384D02*
X14805882Y-11628384D01*
X14805882Y-11628384D02*
X14824929Y-11637908D01*
X14824929Y-11637908D02*
X14834453Y-11647431D01*
X14834453Y-11647431D02*
X14843977Y-11666479D01*
X14843977Y-11666479D02*
X14853501Y-11704574D01*
X14853501Y-11704574D02*
X14853501Y-11752193D01*
X14853501Y-11752193D02*
X14843977Y-11790288D01*
X14843977Y-11790288D02*
X14834453Y-11809336D01*
X14834453Y-11809336D02*
X14824929Y-11818860D01*
X14824929Y-11818860D02*
X14805882Y-11828384D01*
X14805882Y-11828384D02*
X14786834Y-11828384D01*
X14786834Y-11828384D02*
X14767786Y-11818860D01*
X14767786Y-11818860D02*
X14758263Y-11809336D01*
X14758263Y-11809336D02*
X14748739Y-11790288D01*
X14748739Y-11790288D02*
X14739215Y-11752193D01*
X14739215Y-11752193D02*
X14739215Y-11704574D01*
X14739215Y-11704574D02*
X14748739Y-11666479D01*
X14748739Y-11666479D02*
X14758263Y-11647431D01*
X14758263Y-11647431D02*
X14767786Y-11637908D01*
X14767786Y-11637908D02*
X14786834Y-11628384D01*
X14939215Y-11809336D02*
X14948739Y-11818860D01*
X14948739Y-11818860D02*
X14939215Y-11828384D01*
X14939215Y-11828384D02*
X14929691Y-11818860D01*
X14929691Y-11818860D02*
X14939215Y-11809336D01*
X14939215Y-11809336D02*
X14939215Y-11828384D01*
X15072548Y-11628384D02*
X15091596Y-11628384D01*
X15091596Y-11628384D02*
X15110644Y-11637908D01*
X15110644Y-11637908D02*
X15120167Y-11647431D01*
X15120167Y-11647431D02*
X15129691Y-11666479D01*
X15129691Y-11666479D02*
X15139215Y-11704574D01*
X15139215Y-11704574D02*
X15139215Y-11752193D01*
X15139215Y-11752193D02*
X15129691Y-11790288D01*
X15129691Y-11790288D02*
X15120167Y-11809336D01*
X15120167Y-11809336D02*
X15110644Y-11818860D01*
X15110644Y-11818860D02*
X15091596Y-11828384D01*
X15091596Y-11828384D02*
X15072548Y-11828384D01*
X15072548Y-11828384D02*
X15053501Y-11818860D01*
X15053501Y-11818860D02*
X15043977Y-11809336D01*
X15043977Y-11809336D02*
X15034453Y-11790288D01*
X15034453Y-11790288D02*
X15024929Y-11752193D01*
X15024929Y-11752193D02*
X15024929Y-11704574D01*
X15024929Y-11704574D02*
X15034453Y-11666479D01*
X15034453Y-11666479D02*
X15043977Y-11647431D01*
X15043977Y-11647431D02*
X15053501Y-11637908D01*
X15053501Y-11637908D02*
X15072548Y-11628384D01*
X15205882Y-11628384D02*
X15329691Y-11628384D01*
X15329691Y-11628384D02*
X15263025Y-11704574D01*
X15263025Y-11704574D02*
X15291596Y-11704574D01*
X15291596Y-11704574D02*
X15310644Y-11714098D01*
X15310644Y-11714098D02*
X15320167Y-11723622D01*
X15320167Y-11723622D02*
X15329691Y-11742669D01*
X15329691Y-11742669D02*
X15329691Y-11790288D01*
X15329691Y-11790288D02*
X15320167Y-11809336D01*
X15320167Y-11809336D02*
X15310644Y-11818860D01*
X15310644Y-11818860D02*
X15291596Y-11828384D01*
X15291596Y-11828384D02*
X15234453Y-11828384D01*
X15234453Y-11828384D02*
X15215406Y-11818860D01*
X15215406Y-11818860D02*
X15205882Y-11809336D01*
X15520167Y-11828384D02*
X15405882Y-11828384D01*
X15463025Y-11828384D02*
X15463025Y-11628384D01*
X15463025Y-11628384D02*
X15443977Y-11656955D01*
X15443977Y-11656955D02*
X15424929Y-11676003D01*
X15424929Y-11676003D02*
X15405882Y-11685527D01*
X15701120Y-11628384D02*
X15605882Y-11628384D01*
X15605882Y-11628384D02*
X15596358Y-11723622D01*
X15596358Y-11723622D02*
X15605882Y-11714098D01*
X15605882Y-11714098D02*
X15624929Y-11704574D01*
X15624929Y-11704574D02*
X15672548Y-11704574D01*
X15672548Y-11704574D02*
X15691596Y-11714098D01*
X15691596Y-11714098D02*
X15701120Y-11723622D01*
X15701120Y-11723622D02*
X15710644Y-11742669D01*
X15710644Y-11742669D02*
X15710644Y-11790288D01*
X15710644Y-11790288D02*
X15701120Y-11809336D01*
X15701120Y-11809336D02*
X15691596Y-11818860D01*
X15691596Y-11818860D02*
X15672548Y-11828384D01*
X15672548Y-11828384D02*
X15624929Y-11828384D01*
X15624929Y-11828384D02*
X15605882Y-11818860D01*
X15605882Y-11818860D02*
X15596358Y-11809336D01*
X15786834Y-11628384D02*
X15786834Y-11666479D01*
X15863025Y-11628384D02*
X15863025Y-11666479D01*
X16158263Y-11904574D02*
X16148739Y-11895050D01*
X16148739Y-11895050D02*
X16129691Y-11866479D01*
X16129691Y-11866479D02*
X16120168Y-11847431D01*
X16120168Y-11847431D02*
X16110644Y-11818860D01*
X16110644Y-11818860D02*
X16101120Y-11771241D01*
X16101120Y-11771241D02*
X16101120Y-11733146D01*
X16101120Y-11733146D02*
X16110644Y-11685527D01*
X16110644Y-11685527D02*
X16120168Y-11656955D01*
X16120168Y-11656955D02*
X16129691Y-11637908D01*
X16129691Y-11637908D02*
X16148739Y-11609336D01*
X16148739Y-11609336D02*
X16158263Y-11599812D01*
X16339215Y-11828384D02*
X16224929Y-11828384D01*
X16282072Y-11828384D02*
X16282072Y-11628384D01*
X16282072Y-11628384D02*
X16263025Y-11656955D01*
X16263025Y-11656955D02*
X16243977Y-11676003D01*
X16243977Y-11676003D02*
X16224929Y-11685527D01*
X16463025Y-11628384D02*
X16482072Y-11628384D01*
X16482072Y-11628384D02*
X16501120Y-11637908D01*
X16501120Y-11637908D02*
X16510644Y-11647431D01*
X16510644Y-11647431D02*
X16520168Y-11666479D01*
X16520168Y-11666479D02*
X16529691Y-11704574D01*
X16529691Y-11704574D02*
X16529691Y-11752193D01*
X16529691Y-11752193D02*
X16520168Y-11790288D01*
X16520168Y-11790288D02*
X16510644Y-11809336D01*
X16510644Y-11809336D02*
X16501120Y-11818860D01*
X16501120Y-11818860D02*
X16482072Y-11828384D01*
X16482072Y-11828384D02*
X16463025Y-11828384D01*
X16463025Y-11828384D02*
X16443977Y-11818860D01*
X16443977Y-11818860D02*
X16434453Y-11809336D01*
X16434453Y-11809336D02*
X16424929Y-11790288D01*
X16424929Y-11790288D02*
X16415406Y-11752193D01*
X16415406Y-11752193D02*
X16415406Y-11704574D01*
X16415406Y-11704574D02*
X16424929Y-11666479D01*
X16424929Y-11666479D02*
X16434453Y-11647431D01*
X16434453Y-11647431D02*
X16443977Y-11637908D01*
X16443977Y-11637908D02*
X16463025Y-11628384D01*
X16767787Y-11828384D02*
X16767787Y-11628384D01*
X16853501Y-11828384D02*
X16853501Y-11723622D01*
X16853501Y-11723622D02*
X16843977Y-11704574D01*
X16843977Y-11704574D02*
X16824930Y-11695050D01*
X16824930Y-11695050D02*
X16796358Y-11695050D01*
X16796358Y-11695050D02*
X16777311Y-11704574D01*
X16777311Y-11704574D02*
X16767787Y-11714098D01*
X16977311Y-11828384D02*
X16958263Y-11818860D01*
X16958263Y-11818860D02*
X16948739Y-11809336D01*
X16948739Y-11809336D02*
X16939215Y-11790288D01*
X16939215Y-11790288D02*
X16939215Y-11733146D01*
X16939215Y-11733146D02*
X16948739Y-11714098D01*
X16948739Y-11714098D02*
X16958263Y-11704574D01*
X16958263Y-11704574D02*
X16977311Y-11695050D01*
X16977311Y-11695050D02*
X17005882Y-11695050D01*
X17005882Y-11695050D02*
X17024930Y-11704574D01*
X17024930Y-11704574D02*
X17034453Y-11714098D01*
X17034453Y-11714098D02*
X17043977Y-11733146D01*
X17043977Y-11733146D02*
X17043977Y-11790288D01*
X17043977Y-11790288D02*
X17034453Y-11809336D01*
X17034453Y-11809336D02*
X17024930Y-11818860D01*
X17024930Y-11818860D02*
X17005882Y-11828384D01*
X17005882Y-11828384D02*
X16977311Y-11828384D01*
X17158263Y-11828384D02*
X17139215Y-11818860D01*
X17139215Y-11818860D02*
X17129692Y-11799812D01*
X17129692Y-11799812D02*
X17129692Y-11628384D01*
X17310644Y-11818860D02*
X17291596Y-11828384D01*
X17291596Y-11828384D02*
X17253501Y-11828384D01*
X17253501Y-11828384D02*
X17234453Y-11818860D01*
X17234453Y-11818860D02*
X17224930Y-11799812D01*
X17224930Y-11799812D02*
X17224930Y-11723622D01*
X17224930Y-11723622D02*
X17234453Y-11704574D01*
X17234453Y-11704574D02*
X17253501Y-11695050D01*
X17253501Y-11695050D02*
X17291596Y-11695050D01*
X17291596Y-11695050D02*
X17310644Y-11704574D01*
X17310644Y-11704574D02*
X17320168Y-11723622D01*
X17320168Y-11723622D02*
X17320168Y-11742669D01*
X17320168Y-11742669D02*
X17224930Y-11761717D01*
X17396358Y-11818860D02*
X17415406Y-11828384D01*
X17415406Y-11828384D02*
X17453501Y-11828384D01*
X17453501Y-11828384D02*
X17472549Y-11818860D01*
X17472549Y-11818860D02*
X17482073Y-11799812D01*
X17482073Y-11799812D02*
X17482073Y-11790288D01*
X17482073Y-11790288D02*
X17472549Y-11771241D01*
X17472549Y-11771241D02*
X17453501Y-11761717D01*
X17453501Y-11761717D02*
X17424930Y-11761717D01*
X17424930Y-11761717D02*
X17405882Y-11752193D01*
X17405882Y-11752193D02*
X17396358Y-11733146D01*
X17396358Y-11733146D02*
X17396358Y-11723622D01*
X17396358Y-11723622D02*
X17405882Y-11704574D01*
X17405882Y-11704574D02*
X17424930Y-11695050D01*
X17424930Y-11695050D02*
X17453501Y-11695050D01*
X17453501Y-11695050D02*
X17472549Y-11704574D01*
X17548739Y-11904574D02*
X17558263Y-11895050D01*
X17558263Y-11895050D02*
X17577311Y-11866479D01*
X17577311Y-11866479D02*
X17586834Y-11847431D01*
X17586834Y-11847431D02*
X17596358Y-11818860D01*
X17596358Y-11818860D02*
X17605882Y-11771241D01*
X17605882Y-11771241D02*
X17605882Y-11733146D01*
X17605882Y-11733146D02*
X17596358Y-11685527D01*
X17596358Y-11685527D02*
X17586834Y-11656955D01*
X17586834Y-11656955D02*
X17577311Y-11637908D01*
X17577311Y-11637908D02*
X17558263Y-11609336D01*
X17558263Y-11609336D02*
X17548739Y-11599812D01*
D12*
X12570020Y-12032720D02*
X12570020Y-11969080D01*
X12506380Y-11969080D01*
X12506380Y-12032720D01*
X12570020Y-12032720D01*
D11*
X12882072Y-11892384D02*
X12901120Y-11892384D01*
X12901120Y-11892384D02*
X12920167Y-11901908D01*
X12920167Y-11901908D02*
X12929691Y-11911431D01*
X12929691Y-11911431D02*
X12939215Y-11930479D01*
X12939215Y-11930479D02*
X12948739Y-11968574D01*
X12948739Y-11968574D02*
X12948739Y-12016193D01*
X12948739Y-12016193D02*
X12939215Y-12054288D01*
X12939215Y-12054288D02*
X12929691Y-12073336D01*
X12929691Y-12073336D02*
X12920167Y-12082860D01*
X12920167Y-12082860D02*
X12901120Y-12092384D01*
X12901120Y-12092384D02*
X12882072Y-12092384D01*
X12882072Y-12092384D02*
X12863024Y-12082860D01*
X12863024Y-12082860D02*
X12853501Y-12073336D01*
X12853501Y-12073336D02*
X12843977Y-12054288D01*
X12843977Y-12054288D02*
X12834453Y-12016193D01*
X12834453Y-12016193D02*
X12834453Y-11968574D01*
X12834453Y-11968574D02*
X12843977Y-11930479D01*
X12843977Y-11930479D02*
X12853501Y-11911431D01*
X12853501Y-11911431D02*
X12863024Y-11901908D01*
X12863024Y-11901908D02*
X12882072Y-11892384D01*
X13034453Y-12073336D02*
X13043977Y-12082860D01*
X13043977Y-12082860D02*
X13034453Y-12092384D01*
X13034453Y-12092384D02*
X13024929Y-12082860D01*
X13024929Y-12082860D02*
X13034453Y-12073336D01*
X13034453Y-12073336D02*
X13034453Y-12092384D01*
X13139215Y-12092384D02*
X13177310Y-12092384D01*
X13177310Y-12092384D02*
X13196358Y-12082860D01*
X13196358Y-12082860D02*
X13205882Y-12073336D01*
X13205882Y-12073336D02*
X13224929Y-12044765D01*
X13224929Y-12044765D02*
X13234453Y-12006669D01*
X13234453Y-12006669D02*
X13234453Y-11930479D01*
X13234453Y-11930479D02*
X13224929Y-11911431D01*
X13224929Y-11911431D02*
X13215405Y-11901908D01*
X13215405Y-11901908D02*
X13196358Y-11892384D01*
X13196358Y-11892384D02*
X13158262Y-11892384D01*
X13158262Y-11892384D02*
X13139215Y-11901908D01*
X13139215Y-11901908D02*
X13129691Y-11911431D01*
X13129691Y-11911431D02*
X13120167Y-11930479D01*
X13120167Y-11930479D02*
X13120167Y-11978098D01*
X13120167Y-11978098D02*
X13129691Y-11997146D01*
X13129691Y-11997146D02*
X13139215Y-12006669D01*
X13139215Y-12006669D02*
X13158262Y-12016193D01*
X13158262Y-12016193D02*
X13196358Y-12016193D01*
X13196358Y-12016193D02*
X13215405Y-12006669D01*
X13215405Y-12006669D02*
X13224929Y-11997146D01*
X13224929Y-11997146D02*
X13234453Y-11978098D01*
X13358262Y-11892384D02*
X13377310Y-11892384D01*
X13377310Y-11892384D02*
X13396358Y-11901908D01*
X13396358Y-11901908D02*
X13405882Y-11911431D01*
X13405882Y-11911431D02*
X13415405Y-11930479D01*
X13415405Y-11930479D02*
X13424929Y-11968574D01*
X13424929Y-11968574D02*
X13424929Y-12016193D01*
X13424929Y-12016193D02*
X13415405Y-12054288D01*
X13415405Y-12054288D02*
X13405882Y-12073336D01*
X13405882Y-12073336D02*
X13396358Y-12082860D01*
X13396358Y-12082860D02*
X13377310Y-12092384D01*
X13377310Y-12092384D02*
X13358262Y-12092384D01*
X13358262Y-12092384D02*
X13339215Y-12082860D01*
X13339215Y-12082860D02*
X13329691Y-12073336D01*
X13329691Y-12073336D02*
X13320167Y-12054288D01*
X13320167Y-12054288D02*
X13310643Y-12016193D01*
X13310643Y-12016193D02*
X13310643Y-11968574D01*
X13310643Y-11968574D02*
X13320167Y-11930479D01*
X13320167Y-11930479D02*
X13329691Y-11911431D01*
X13329691Y-11911431D02*
X13339215Y-11901908D01*
X13339215Y-11901908D02*
X13358262Y-11892384D01*
X13548739Y-11892384D02*
X13567786Y-11892384D01*
X13567786Y-11892384D02*
X13586834Y-11901908D01*
X13586834Y-11901908D02*
X13596358Y-11911431D01*
X13596358Y-11911431D02*
X13605882Y-11930479D01*
X13605882Y-11930479D02*
X13615405Y-11968574D01*
X13615405Y-11968574D02*
X13615405Y-12016193D01*
X13615405Y-12016193D02*
X13605882Y-12054288D01*
X13605882Y-12054288D02*
X13596358Y-12073336D01*
X13596358Y-12073336D02*
X13586834Y-12082860D01*
X13586834Y-12082860D02*
X13567786Y-12092384D01*
X13567786Y-12092384D02*
X13548739Y-12092384D01*
X13548739Y-12092384D02*
X13529691Y-12082860D01*
X13529691Y-12082860D02*
X13520167Y-12073336D01*
X13520167Y-12073336D02*
X13510643Y-12054288D01*
X13510643Y-12054288D02*
X13501120Y-12016193D01*
X13501120Y-12016193D02*
X13501120Y-11968574D01*
X13501120Y-11968574D02*
X13510643Y-11930479D01*
X13510643Y-11930479D02*
X13520167Y-11911431D01*
X13520167Y-11911431D02*
X13529691Y-11901908D01*
X13529691Y-11901908D02*
X13548739Y-11892384D01*
X13701120Y-12092384D02*
X13701120Y-11959050D01*
X13701120Y-11978098D02*
X13710643Y-11968574D01*
X13710643Y-11968574D02*
X13729691Y-11959050D01*
X13729691Y-11959050D02*
X13758263Y-11959050D01*
X13758263Y-11959050D02*
X13777310Y-11968574D01*
X13777310Y-11968574D02*
X13786834Y-11987622D01*
X13786834Y-11987622D02*
X13786834Y-12092384D01*
X13786834Y-11987622D02*
X13796358Y-11968574D01*
X13796358Y-11968574D02*
X13815405Y-11959050D01*
X13815405Y-11959050D02*
X13843977Y-11959050D01*
X13843977Y-11959050D02*
X13863024Y-11968574D01*
X13863024Y-11968574D02*
X13872548Y-11987622D01*
X13872548Y-11987622D02*
X13872548Y-12092384D01*
X13967786Y-12092384D02*
X13967786Y-11959050D01*
X13967786Y-11978098D02*
X13977310Y-11968574D01*
X13977310Y-11968574D02*
X13996358Y-11959050D01*
X13996358Y-11959050D02*
X14024929Y-11959050D01*
X14024929Y-11959050D02*
X14043977Y-11968574D01*
X14043977Y-11968574D02*
X14053501Y-11987622D01*
X14053501Y-11987622D02*
X14053501Y-12092384D01*
X14053501Y-11987622D02*
X14063024Y-11968574D01*
X14063024Y-11968574D02*
X14082072Y-11959050D01*
X14082072Y-11959050D02*
X14110643Y-11959050D01*
X14110643Y-11959050D02*
X14129691Y-11968574D01*
X14129691Y-11968574D02*
X14139215Y-11987622D01*
X14139215Y-11987622D02*
X14139215Y-12092384D01*
X14529691Y-11882860D02*
X14358263Y-12140003D01*
X14786834Y-11892384D02*
X14805882Y-11892384D01*
X14805882Y-11892384D02*
X14824929Y-11901908D01*
X14824929Y-11901908D02*
X14834453Y-11911431D01*
X14834453Y-11911431D02*
X14843977Y-11930479D01*
X14843977Y-11930479D02*
X14853501Y-11968574D01*
X14853501Y-11968574D02*
X14853501Y-12016193D01*
X14853501Y-12016193D02*
X14843977Y-12054288D01*
X14843977Y-12054288D02*
X14834453Y-12073336D01*
X14834453Y-12073336D02*
X14824929Y-12082860D01*
X14824929Y-12082860D02*
X14805882Y-12092384D01*
X14805882Y-12092384D02*
X14786834Y-12092384D01*
X14786834Y-12092384D02*
X14767786Y-12082860D01*
X14767786Y-12082860D02*
X14758263Y-12073336D01*
X14758263Y-12073336D02*
X14748739Y-12054288D01*
X14748739Y-12054288D02*
X14739215Y-12016193D01*
X14739215Y-12016193D02*
X14739215Y-11968574D01*
X14739215Y-11968574D02*
X14748739Y-11930479D01*
X14748739Y-11930479D02*
X14758263Y-11911431D01*
X14758263Y-11911431D02*
X14767786Y-11901908D01*
X14767786Y-11901908D02*
X14786834Y-11892384D01*
X14939215Y-12073336D02*
X14948739Y-12082860D01*
X14948739Y-12082860D02*
X14939215Y-12092384D01*
X14939215Y-12092384D02*
X14929691Y-12082860D01*
X14929691Y-12082860D02*
X14939215Y-12073336D01*
X14939215Y-12073336D02*
X14939215Y-12092384D01*
X15072548Y-11892384D02*
X15091596Y-11892384D01*
X15091596Y-11892384D02*
X15110644Y-11901908D01*
X15110644Y-11901908D02*
X15120167Y-11911431D01*
X15120167Y-11911431D02*
X15129691Y-11930479D01*
X15129691Y-11930479D02*
X15139215Y-11968574D01*
X15139215Y-11968574D02*
X15139215Y-12016193D01*
X15139215Y-12016193D02*
X15129691Y-12054288D01*
X15129691Y-12054288D02*
X15120167Y-12073336D01*
X15120167Y-12073336D02*
X15110644Y-12082860D01*
X15110644Y-12082860D02*
X15091596Y-12092384D01*
X15091596Y-12092384D02*
X15072548Y-12092384D01*
X15072548Y-12092384D02*
X15053501Y-12082860D01*
X15053501Y-12082860D02*
X15043977Y-12073336D01*
X15043977Y-12073336D02*
X15034453Y-12054288D01*
X15034453Y-12054288D02*
X15024929Y-12016193D01*
X15024929Y-12016193D02*
X15024929Y-11968574D01*
X15024929Y-11968574D02*
X15034453Y-11930479D01*
X15034453Y-11930479D02*
X15043977Y-11911431D01*
X15043977Y-11911431D02*
X15053501Y-11901908D01*
X15053501Y-11901908D02*
X15072548Y-11892384D01*
X15205882Y-11892384D02*
X15329691Y-11892384D01*
X15329691Y-11892384D02*
X15263025Y-11968574D01*
X15263025Y-11968574D02*
X15291596Y-11968574D01*
X15291596Y-11968574D02*
X15310644Y-11978098D01*
X15310644Y-11978098D02*
X15320167Y-11987622D01*
X15320167Y-11987622D02*
X15329691Y-12006669D01*
X15329691Y-12006669D02*
X15329691Y-12054288D01*
X15329691Y-12054288D02*
X15320167Y-12073336D01*
X15320167Y-12073336D02*
X15310644Y-12082860D01*
X15310644Y-12082860D02*
X15291596Y-12092384D01*
X15291596Y-12092384D02*
X15234453Y-12092384D01*
X15234453Y-12092384D02*
X15215406Y-12082860D01*
X15215406Y-12082860D02*
X15205882Y-12073336D01*
X15510644Y-11892384D02*
X15415406Y-11892384D01*
X15415406Y-11892384D02*
X15405882Y-11987622D01*
X15405882Y-11987622D02*
X15415406Y-11978098D01*
X15415406Y-11978098D02*
X15434453Y-11968574D01*
X15434453Y-11968574D02*
X15482072Y-11968574D01*
X15482072Y-11968574D02*
X15501120Y-11978098D01*
X15501120Y-11978098D02*
X15510644Y-11987622D01*
X15510644Y-11987622D02*
X15520167Y-12006669D01*
X15520167Y-12006669D02*
X15520167Y-12054288D01*
X15520167Y-12054288D02*
X15510644Y-12073336D01*
X15510644Y-12073336D02*
X15501120Y-12082860D01*
X15501120Y-12082860D02*
X15482072Y-12092384D01*
X15482072Y-12092384D02*
X15434453Y-12092384D01*
X15434453Y-12092384D02*
X15415406Y-12082860D01*
X15415406Y-12082860D02*
X15405882Y-12073336D01*
X15691596Y-11959050D02*
X15691596Y-12092384D01*
X15643977Y-11882860D02*
X15596358Y-12025717D01*
X15596358Y-12025717D02*
X15720167Y-12025717D01*
X15786834Y-11892384D02*
X15786834Y-11930479D01*
X15863025Y-11892384D02*
X15863025Y-11930479D01*
X16158263Y-12168574D02*
X16148739Y-12159050D01*
X16148739Y-12159050D02*
X16129691Y-12130479D01*
X16129691Y-12130479D02*
X16120168Y-12111431D01*
X16120168Y-12111431D02*
X16110644Y-12082860D01*
X16110644Y-12082860D02*
X16101120Y-12035241D01*
X16101120Y-12035241D02*
X16101120Y-11997146D01*
X16101120Y-11997146D02*
X16110644Y-11949527D01*
X16110644Y-11949527D02*
X16120168Y-11920955D01*
X16120168Y-11920955D02*
X16129691Y-11901908D01*
X16129691Y-11901908D02*
X16148739Y-11873336D01*
X16148739Y-11873336D02*
X16158263Y-11863812D01*
X16263025Y-11978098D02*
X16243977Y-11968574D01*
X16243977Y-11968574D02*
X16234453Y-11959050D01*
X16234453Y-11959050D02*
X16224929Y-11940003D01*
X16224929Y-11940003D02*
X16224929Y-11930479D01*
X16224929Y-11930479D02*
X16234453Y-11911431D01*
X16234453Y-11911431D02*
X16243977Y-11901908D01*
X16243977Y-11901908D02*
X16263025Y-11892384D01*
X16263025Y-11892384D02*
X16301120Y-11892384D01*
X16301120Y-11892384D02*
X16320168Y-11901908D01*
X16320168Y-11901908D02*
X16329691Y-11911431D01*
X16329691Y-11911431D02*
X16339215Y-11930479D01*
X16339215Y-11930479D02*
X16339215Y-11940003D01*
X16339215Y-11940003D02*
X16329691Y-11959050D01*
X16329691Y-11959050D02*
X16320168Y-11968574D01*
X16320168Y-11968574D02*
X16301120Y-11978098D01*
X16301120Y-11978098D02*
X16263025Y-11978098D01*
X16263025Y-11978098D02*
X16243977Y-11987622D01*
X16243977Y-11987622D02*
X16234453Y-11997146D01*
X16234453Y-11997146D02*
X16224929Y-12016193D01*
X16224929Y-12016193D02*
X16224929Y-12054288D01*
X16224929Y-12054288D02*
X16234453Y-12073336D01*
X16234453Y-12073336D02*
X16243977Y-12082860D01*
X16243977Y-12082860D02*
X16263025Y-12092384D01*
X16263025Y-12092384D02*
X16301120Y-12092384D01*
X16301120Y-12092384D02*
X16320168Y-12082860D01*
X16320168Y-12082860D02*
X16329691Y-12073336D01*
X16329691Y-12073336D02*
X16339215Y-12054288D01*
X16339215Y-12054288D02*
X16339215Y-12016193D01*
X16339215Y-12016193D02*
X16329691Y-11997146D01*
X16329691Y-11997146D02*
X16320168Y-11987622D01*
X16320168Y-11987622D02*
X16301120Y-11978098D01*
X16577310Y-12092384D02*
X16577310Y-11892384D01*
X16663025Y-12092384D02*
X16663025Y-11987622D01*
X16663025Y-11987622D02*
X16653501Y-11968574D01*
X16653501Y-11968574D02*
X16634453Y-11959050D01*
X16634453Y-11959050D02*
X16605882Y-11959050D01*
X16605882Y-11959050D02*
X16586834Y-11968574D01*
X16586834Y-11968574D02*
X16577310Y-11978098D01*
X16786834Y-12092384D02*
X16767787Y-12082860D01*
X16767787Y-12082860D02*
X16758263Y-12073336D01*
X16758263Y-12073336D02*
X16748739Y-12054288D01*
X16748739Y-12054288D02*
X16748739Y-11997146D01*
X16748739Y-11997146D02*
X16758263Y-11978098D01*
X16758263Y-11978098D02*
X16767787Y-11968574D01*
X16767787Y-11968574D02*
X16786834Y-11959050D01*
X16786834Y-11959050D02*
X16815406Y-11959050D01*
X16815406Y-11959050D02*
X16834453Y-11968574D01*
X16834453Y-11968574D02*
X16843977Y-11978098D01*
X16843977Y-11978098D02*
X16853501Y-11997146D01*
X16853501Y-11997146D02*
X16853501Y-12054288D01*
X16853501Y-12054288D02*
X16843977Y-12073336D01*
X16843977Y-12073336D02*
X16834453Y-12082860D01*
X16834453Y-12082860D02*
X16815406Y-12092384D01*
X16815406Y-12092384D02*
X16786834Y-12092384D01*
X16967787Y-12092384D02*
X16948739Y-12082860D01*
X16948739Y-12082860D02*
X16939215Y-12063812D01*
X16939215Y-12063812D02*
X16939215Y-11892384D01*
X17120168Y-12082860D02*
X17101120Y-12092384D01*
X17101120Y-12092384D02*
X17063025Y-12092384D01*
X17063025Y-12092384D02*
X17043977Y-12082860D01*
X17043977Y-12082860D02*
X17034453Y-12063812D01*
X17034453Y-12063812D02*
X17034453Y-11987622D01*
X17034453Y-11987622D02*
X17043977Y-11968574D01*
X17043977Y-11968574D02*
X17063025Y-11959050D01*
X17063025Y-11959050D02*
X17101120Y-11959050D01*
X17101120Y-11959050D02*
X17120168Y-11968574D01*
X17120168Y-11968574D02*
X17129692Y-11987622D01*
X17129692Y-11987622D02*
X17129692Y-12006669D01*
X17129692Y-12006669D02*
X17034453Y-12025717D01*
X17205882Y-12082860D02*
X17224930Y-12092384D01*
X17224930Y-12092384D02*
X17263025Y-12092384D01*
X17263025Y-12092384D02*
X17282073Y-12082860D01*
X17282073Y-12082860D02*
X17291596Y-12063812D01*
X17291596Y-12063812D02*
X17291596Y-12054288D01*
X17291596Y-12054288D02*
X17282073Y-12035241D01*
X17282073Y-12035241D02*
X17263025Y-12025717D01*
X17263025Y-12025717D02*
X17234453Y-12025717D01*
X17234453Y-12025717D02*
X17215406Y-12016193D01*
X17215406Y-12016193D02*
X17205882Y-11997146D01*
X17205882Y-11997146D02*
X17205882Y-11987622D01*
X17205882Y-11987622D02*
X17215406Y-11968574D01*
X17215406Y-11968574D02*
X17234453Y-11959050D01*
X17234453Y-11959050D02*
X17263025Y-11959050D01*
X17263025Y-11959050D02*
X17282073Y-11968574D01*
X17358263Y-12168574D02*
X17367787Y-12159050D01*
X17367787Y-12159050D02*
X17386834Y-12130479D01*
X17386834Y-12130479D02*
X17396358Y-12111431D01*
X17396358Y-12111431D02*
X17405882Y-12082860D01*
X17405882Y-12082860D02*
X17415406Y-12035241D01*
X17415406Y-12035241D02*
X17415406Y-11997146D01*
X17415406Y-11997146D02*
X17405882Y-11949527D01*
X17405882Y-11949527D02*
X17396358Y-11920955D01*
X17396358Y-11920955D02*
X17386834Y-11901908D01*
X17386834Y-11901908D02*
X17367787Y-11873336D01*
X17367787Y-11873336D02*
X17358263Y-11863812D01*
D12*
X12533200Y-12314900D02*
X12583200Y-12264900D01*
X12533200Y-12214900D01*
X12483200Y-12264900D01*
X12533200Y-12314900D01*
D11*
X12948739Y-12356384D02*
X12834453Y-12356384D01*
X12891596Y-12356384D02*
X12891596Y-12156384D01*
X12891596Y-12156384D02*
X12872548Y-12184955D01*
X12872548Y-12184955D02*
X12853501Y-12204003D01*
X12853501Y-12204003D02*
X12834453Y-12213527D01*
X13034453Y-12337336D02*
X13043977Y-12346860D01*
X13043977Y-12346860D02*
X13034453Y-12356384D01*
X13034453Y-12356384D02*
X13024929Y-12346860D01*
X13024929Y-12346860D02*
X13034453Y-12337336D01*
X13034453Y-12337336D02*
X13034453Y-12356384D01*
X13167786Y-12156384D02*
X13186834Y-12156384D01*
X13186834Y-12156384D02*
X13205882Y-12165908D01*
X13205882Y-12165908D02*
X13215405Y-12175431D01*
X13215405Y-12175431D02*
X13224929Y-12194479D01*
X13224929Y-12194479D02*
X13234453Y-12232574D01*
X13234453Y-12232574D02*
X13234453Y-12280193D01*
X13234453Y-12280193D02*
X13224929Y-12318288D01*
X13224929Y-12318288D02*
X13215405Y-12337336D01*
X13215405Y-12337336D02*
X13205882Y-12346860D01*
X13205882Y-12346860D02*
X13186834Y-12356384D01*
X13186834Y-12356384D02*
X13167786Y-12356384D01*
X13167786Y-12356384D02*
X13148739Y-12346860D01*
X13148739Y-12346860D02*
X13139215Y-12337336D01*
X13139215Y-12337336D02*
X13129691Y-12318288D01*
X13129691Y-12318288D02*
X13120167Y-12280193D01*
X13120167Y-12280193D02*
X13120167Y-12232574D01*
X13120167Y-12232574D02*
X13129691Y-12194479D01*
X13129691Y-12194479D02*
X13139215Y-12175431D01*
X13139215Y-12175431D02*
X13148739Y-12165908D01*
X13148739Y-12165908D02*
X13167786Y-12156384D01*
X13358262Y-12156384D02*
X13377310Y-12156384D01*
X13377310Y-12156384D02*
X13396358Y-12165908D01*
X13396358Y-12165908D02*
X13405882Y-12175431D01*
X13405882Y-12175431D02*
X13415405Y-12194479D01*
X13415405Y-12194479D02*
X13424929Y-12232574D01*
X13424929Y-12232574D02*
X13424929Y-12280193D01*
X13424929Y-12280193D02*
X13415405Y-12318288D01*
X13415405Y-12318288D02*
X13405882Y-12337336D01*
X13405882Y-12337336D02*
X13396358Y-12346860D01*
X13396358Y-12346860D02*
X13377310Y-12356384D01*
X13377310Y-12356384D02*
X13358262Y-12356384D01*
X13358262Y-12356384D02*
X13339215Y-12346860D01*
X13339215Y-12346860D02*
X13329691Y-12337336D01*
X13329691Y-12337336D02*
X13320167Y-12318288D01*
X13320167Y-12318288D02*
X13310643Y-12280193D01*
X13310643Y-12280193D02*
X13310643Y-12232574D01*
X13310643Y-12232574D02*
X13320167Y-12194479D01*
X13320167Y-12194479D02*
X13329691Y-12175431D01*
X13329691Y-12175431D02*
X13339215Y-12165908D01*
X13339215Y-12165908D02*
X13358262Y-12156384D01*
X13548739Y-12156384D02*
X13567786Y-12156384D01*
X13567786Y-12156384D02*
X13586834Y-12165908D01*
X13586834Y-12165908D02*
X13596358Y-12175431D01*
X13596358Y-12175431D02*
X13605882Y-12194479D01*
X13605882Y-12194479D02*
X13615405Y-12232574D01*
X13615405Y-12232574D02*
X13615405Y-12280193D01*
X13615405Y-12280193D02*
X13605882Y-12318288D01*
X13605882Y-12318288D02*
X13596358Y-12337336D01*
X13596358Y-12337336D02*
X13586834Y-12346860D01*
X13586834Y-12346860D02*
X13567786Y-12356384D01*
X13567786Y-12356384D02*
X13548739Y-12356384D01*
X13548739Y-12356384D02*
X13529691Y-12346860D01*
X13529691Y-12346860D02*
X13520167Y-12337336D01*
X13520167Y-12337336D02*
X13510643Y-12318288D01*
X13510643Y-12318288D02*
X13501120Y-12280193D01*
X13501120Y-12280193D02*
X13501120Y-12232574D01*
X13501120Y-12232574D02*
X13510643Y-12194479D01*
X13510643Y-12194479D02*
X13520167Y-12175431D01*
X13520167Y-12175431D02*
X13529691Y-12165908D01*
X13529691Y-12165908D02*
X13548739Y-12156384D01*
X13701120Y-12356384D02*
X13701120Y-12223050D01*
X13701120Y-12242098D02*
X13710643Y-12232574D01*
X13710643Y-12232574D02*
X13729691Y-12223050D01*
X13729691Y-12223050D02*
X13758263Y-12223050D01*
X13758263Y-12223050D02*
X13777310Y-12232574D01*
X13777310Y-12232574D02*
X13786834Y-12251622D01*
X13786834Y-12251622D02*
X13786834Y-12356384D01*
X13786834Y-12251622D02*
X13796358Y-12232574D01*
X13796358Y-12232574D02*
X13815405Y-12223050D01*
X13815405Y-12223050D02*
X13843977Y-12223050D01*
X13843977Y-12223050D02*
X13863024Y-12232574D01*
X13863024Y-12232574D02*
X13872548Y-12251622D01*
X13872548Y-12251622D02*
X13872548Y-12356384D01*
X13967786Y-12356384D02*
X13967786Y-12223050D01*
X13967786Y-12242098D02*
X13977310Y-12232574D01*
X13977310Y-12232574D02*
X13996358Y-12223050D01*
X13996358Y-12223050D02*
X14024929Y-12223050D01*
X14024929Y-12223050D02*
X14043977Y-12232574D01*
X14043977Y-12232574D02*
X14053501Y-12251622D01*
X14053501Y-12251622D02*
X14053501Y-12356384D01*
X14053501Y-12251622D02*
X14063024Y-12232574D01*
X14063024Y-12232574D02*
X14082072Y-12223050D01*
X14082072Y-12223050D02*
X14110643Y-12223050D01*
X14110643Y-12223050D02*
X14129691Y-12232574D01*
X14129691Y-12232574D02*
X14139215Y-12251622D01*
X14139215Y-12251622D02*
X14139215Y-12356384D01*
X14529691Y-12146860D02*
X14358263Y-12404003D01*
X14786834Y-12156384D02*
X14805882Y-12156384D01*
X14805882Y-12156384D02*
X14824929Y-12165908D01*
X14824929Y-12165908D02*
X14834453Y-12175431D01*
X14834453Y-12175431D02*
X14843977Y-12194479D01*
X14843977Y-12194479D02*
X14853501Y-12232574D01*
X14853501Y-12232574D02*
X14853501Y-12280193D01*
X14853501Y-12280193D02*
X14843977Y-12318288D01*
X14843977Y-12318288D02*
X14834453Y-12337336D01*
X14834453Y-12337336D02*
X14824929Y-12346860D01*
X14824929Y-12346860D02*
X14805882Y-12356384D01*
X14805882Y-12356384D02*
X14786834Y-12356384D01*
X14786834Y-12356384D02*
X14767786Y-12346860D01*
X14767786Y-12346860D02*
X14758263Y-12337336D01*
X14758263Y-12337336D02*
X14748739Y-12318288D01*
X14748739Y-12318288D02*
X14739215Y-12280193D01*
X14739215Y-12280193D02*
X14739215Y-12232574D01*
X14739215Y-12232574D02*
X14748739Y-12194479D01*
X14748739Y-12194479D02*
X14758263Y-12175431D01*
X14758263Y-12175431D02*
X14767786Y-12165908D01*
X14767786Y-12165908D02*
X14786834Y-12156384D01*
X14939215Y-12337336D02*
X14948739Y-12346860D01*
X14948739Y-12346860D02*
X14939215Y-12356384D01*
X14939215Y-12356384D02*
X14929691Y-12346860D01*
X14929691Y-12346860D02*
X14939215Y-12337336D01*
X14939215Y-12337336D02*
X14939215Y-12356384D01*
X15072548Y-12156384D02*
X15091596Y-12156384D01*
X15091596Y-12156384D02*
X15110644Y-12165908D01*
X15110644Y-12165908D02*
X15120167Y-12175431D01*
X15120167Y-12175431D02*
X15129691Y-12194479D01*
X15129691Y-12194479D02*
X15139215Y-12232574D01*
X15139215Y-12232574D02*
X15139215Y-12280193D01*
X15139215Y-12280193D02*
X15129691Y-12318288D01*
X15129691Y-12318288D02*
X15120167Y-12337336D01*
X15120167Y-12337336D02*
X15110644Y-12346860D01*
X15110644Y-12346860D02*
X15091596Y-12356384D01*
X15091596Y-12356384D02*
X15072548Y-12356384D01*
X15072548Y-12356384D02*
X15053501Y-12346860D01*
X15053501Y-12346860D02*
X15043977Y-12337336D01*
X15043977Y-12337336D02*
X15034453Y-12318288D01*
X15034453Y-12318288D02*
X15024929Y-12280193D01*
X15024929Y-12280193D02*
X15024929Y-12232574D01*
X15024929Y-12232574D02*
X15034453Y-12194479D01*
X15034453Y-12194479D02*
X15043977Y-12175431D01*
X15043977Y-12175431D02*
X15053501Y-12165908D01*
X15053501Y-12165908D02*
X15072548Y-12156384D01*
X15205882Y-12156384D02*
X15329691Y-12156384D01*
X15329691Y-12156384D02*
X15263025Y-12232574D01*
X15263025Y-12232574D02*
X15291596Y-12232574D01*
X15291596Y-12232574D02*
X15310644Y-12242098D01*
X15310644Y-12242098D02*
X15320167Y-12251622D01*
X15320167Y-12251622D02*
X15329691Y-12270669D01*
X15329691Y-12270669D02*
X15329691Y-12318288D01*
X15329691Y-12318288D02*
X15320167Y-12337336D01*
X15320167Y-12337336D02*
X15310644Y-12346860D01*
X15310644Y-12346860D02*
X15291596Y-12356384D01*
X15291596Y-12356384D02*
X15234453Y-12356384D01*
X15234453Y-12356384D02*
X15215406Y-12346860D01*
X15215406Y-12346860D02*
X15205882Y-12337336D01*
X15424929Y-12356384D02*
X15463025Y-12356384D01*
X15463025Y-12356384D02*
X15482072Y-12346860D01*
X15482072Y-12346860D02*
X15491596Y-12337336D01*
X15491596Y-12337336D02*
X15510644Y-12308765D01*
X15510644Y-12308765D02*
X15520167Y-12270669D01*
X15520167Y-12270669D02*
X15520167Y-12194479D01*
X15520167Y-12194479D02*
X15510644Y-12175431D01*
X15510644Y-12175431D02*
X15501120Y-12165908D01*
X15501120Y-12165908D02*
X15482072Y-12156384D01*
X15482072Y-12156384D02*
X15443977Y-12156384D01*
X15443977Y-12156384D02*
X15424929Y-12165908D01*
X15424929Y-12165908D02*
X15415406Y-12175431D01*
X15415406Y-12175431D02*
X15405882Y-12194479D01*
X15405882Y-12194479D02*
X15405882Y-12242098D01*
X15405882Y-12242098D02*
X15415406Y-12261146D01*
X15415406Y-12261146D02*
X15424929Y-12270669D01*
X15424929Y-12270669D02*
X15443977Y-12280193D01*
X15443977Y-12280193D02*
X15482072Y-12280193D01*
X15482072Y-12280193D02*
X15501120Y-12270669D01*
X15501120Y-12270669D02*
X15510644Y-12261146D01*
X15510644Y-12261146D02*
X15520167Y-12242098D01*
X15691596Y-12223050D02*
X15691596Y-12356384D01*
X15643977Y-12146860D02*
X15596358Y-12289717D01*
X15596358Y-12289717D02*
X15720167Y-12289717D01*
X15786834Y-12156384D02*
X15786834Y-12194479D01*
X15863025Y-12156384D02*
X15863025Y-12194479D01*
X16158263Y-12432574D02*
X16148739Y-12423050D01*
X16148739Y-12423050D02*
X16129691Y-12394479D01*
X16129691Y-12394479D02*
X16120168Y-12375431D01*
X16120168Y-12375431D02*
X16110644Y-12346860D01*
X16110644Y-12346860D02*
X16101120Y-12299241D01*
X16101120Y-12299241D02*
X16101120Y-12261146D01*
X16101120Y-12261146D02*
X16110644Y-12213527D01*
X16110644Y-12213527D02*
X16120168Y-12184955D01*
X16120168Y-12184955D02*
X16129691Y-12165908D01*
X16129691Y-12165908D02*
X16148739Y-12137336D01*
X16148739Y-12137336D02*
X16158263Y-12127812D01*
X16320168Y-12223050D02*
X16320168Y-12356384D01*
X16272548Y-12146860D02*
X16224929Y-12289717D01*
X16224929Y-12289717D02*
X16348739Y-12289717D01*
X16577310Y-12356384D02*
X16577310Y-12156384D01*
X16663025Y-12356384D02*
X16663025Y-12251622D01*
X16663025Y-12251622D02*
X16653501Y-12232574D01*
X16653501Y-12232574D02*
X16634453Y-12223050D01*
X16634453Y-12223050D02*
X16605882Y-12223050D01*
X16605882Y-12223050D02*
X16586834Y-12232574D01*
X16586834Y-12232574D02*
X16577310Y-12242098D01*
X16786834Y-12356384D02*
X16767787Y-12346860D01*
X16767787Y-12346860D02*
X16758263Y-12337336D01*
X16758263Y-12337336D02*
X16748739Y-12318288D01*
X16748739Y-12318288D02*
X16748739Y-12261146D01*
X16748739Y-12261146D02*
X16758263Y-12242098D01*
X16758263Y-12242098D02*
X16767787Y-12232574D01*
X16767787Y-12232574D02*
X16786834Y-12223050D01*
X16786834Y-12223050D02*
X16815406Y-12223050D01*
X16815406Y-12223050D02*
X16834453Y-12232574D01*
X16834453Y-12232574D02*
X16843977Y-12242098D01*
X16843977Y-12242098D02*
X16853501Y-12261146D01*
X16853501Y-12261146D02*
X16853501Y-12318288D01*
X16853501Y-12318288D02*
X16843977Y-12337336D01*
X16843977Y-12337336D02*
X16834453Y-12346860D01*
X16834453Y-12346860D02*
X16815406Y-12356384D01*
X16815406Y-12356384D02*
X16786834Y-12356384D01*
X16967787Y-12356384D02*
X16948739Y-12346860D01*
X16948739Y-12346860D02*
X16939215Y-12327812D01*
X16939215Y-12327812D02*
X16939215Y-12156384D01*
X17120168Y-12346860D02*
X17101120Y-12356384D01*
X17101120Y-12356384D02*
X17063025Y-12356384D01*
X17063025Y-12356384D02*
X17043977Y-12346860D01*
X17043977Y-12346860D02*
X17034453Y-12327812D01*
X17034453Y-12327812D02*
X17034453Y-12251622D01*
X17034453Y-12251622D02*
X17043977Y-12232574D01*
X17043977Y-12232574D02*
X17063025Y-12223050D01*
X17063025Y-12223050D02*
X17101120Y-12223050D01*
X17101120Y-12223050D02*
X17120168Y-12232574D01*
X17120168Y-12232574D02*
X17129692Y-12251622D01*
X17129692Y-12251622D02*
X17129692Y-12270669D01*
X17129692Y-12270669D02*
X17034453Y-12289717D01*
X17205882Y-12346860D02*
X17224930Y-12356384D01*
X17224930Y-12356384D02*
X17263025Y-12356384D01*
X17263025Y-12356384D02*
X17282073Y-12346860D01*
X17282073Y-12346860D02*
X17291596Y-12327812D01*
X17291596Y-12327812D02*
X17291596Y-12318288D01*
X17291596Y-12318288D02*
X17282073Y-12299241D01*
X17282073Y-12299241D02*
X17263025Y-12289717D01*
X17263025Y-12289717D02*
X17234453Y-12289717D01*
X17234453Y-12289717D02*
X17215406Y-12280193D01*
X17215406Y-12280193D02*
X17205882Y-12261146D01*
X17205882Y-12261146D02*
X17205882Y-12251622D01*
X17205882Y-12251622D02*
X17215406Y-12232574D01*
X17215406Y-12232574D02*
X17234453Y-12223050D01*
X17234453Y-12223050D02*
X17263025Y-12223050D01*
X17263025Y-12223050D02*
X17282073Y-12232574D01*
X17358263Y-12432574D02*
X17367787Y-12423050D01*
X17367787Y-12423050D02*
X17386834Y-12394479D01*
X17386834Y-12394479D02*
X17396358Y-12375431D01*
X17396358Y-12375431D02*
X17405882Y-12346860D01*
X17405882Y-12346860D02*
X17415406Y-12299241D01*
X17415406Y-12299241D02*
X17415406Y-12261146D01*
X17415406Y-12261146D02*
X17405882Y-12213527D01*
X17405882Y-12213527D02*
X17396358Y-12184955D01*
X17396358Y-12184955D02*
X17386834Y-12165908D01*
X17386834Y-12165908D02*
X17367787Y-12137336D01*
X17367787Y-12137336D02*
X17358263Y-12127812D01*
D13*
X12403200Y-12438900D02*
X12583200Y-12618900D01*
X12583200Y-12438900D02*
X12403200Y-12618900D01*
X12583200Y-12528900D02*
G75*
G02*
X12403200Y-12528900I-90000J0D01*
G01*
X12403200Y-12528900D02*
G75*
G02*
X12583200Y-12528900I90000J0D01*
G01*
D11*
X12948739Y-12620384D02*
X12834453Y-12620384D01*
X12891596Y-12620384D02*
X12891596Y-12420384D01*
X12891596Y-12420384D02*
X12872548Y-12448955D01*
X12872548Y-12448955D02*
X12853501Y-12468003D01*
X12853501Y-12468003D02*
X12834453Y-12477527D01*
X13034453Y-12601336D02*
X13043977Y-12610860D01*
X13043977Y-12610860D02*
X13034453Y-12620384D01*
X13034453Y-12620384D02*
X13024929Y-12610860D01*
X13024929Y-12610860D02*
X13034453Y-12601336D01*
X13034453Y-12601336D02*
X13034453Y-12620384D01*
X13158262Y-12506098D02*
X13139215Y-12496574D01*
X13139215Y-12496574D02*
X13129691Y-12487050D01*
X13129691Y-12487050D02*
X13120167Y-12468003D01*
X13120167Y-12468003D02*
X13120167Y-12458479D01*
X13120167Y-12458479D02*
X13129691Y-12439431D01*
X13129691Y-12439431D02*
X13139215Y-12429908D01*
X13139215Y-12429908D02*
X13158262Y-12420384D01*
X13158262Y-12420384D02*
X13196358Y-12420384D01*
X13196358Y-12420384D02*
X13215405Y-12429908D01*
X13215405Y-12429908D02*
X13224929Y-12439431D01*
X13224929Y-12439431D02*
X13234453Y-12458479D01*
X13234453Y-12458479D02*
X13234453Y-12468003D01*
X13234453Y-12468003D02*
X13224929Y-12487050D01*
X13224929Y-12487050D02*
X13215405Y-12496574D01*
X13215405Y-12496574D02*
X13196358Y-12506098D01*
X13196358Y-12506098D02*
X13158262Y-12506098D01*
X13158262Y-12506098D02*
X13139215Y-12515622D01*
X13139215Y-12515622D02*
X13129691Y-12525146D01*
X13129691Y-12525146D02*
X13120167Y-12544193D01*
X13120167Y-12544193D02*
X13120167Y-12582288D01*
X13120167Y-12582288D02*
X13129691Y-12601336D01*
X13129691Y-12601336D02*
X13139215Y-12610860D01*
X13139215Y-12610860D02*
X13158262Y-12620384D01*
X13158262Y-12620384D02*
X13196358Y-12620384D01*
X13196358Y-12620384D02*
X13215405Y-12610860D01*
X13215405Y-12610860D02*
X13224929Y-12601336D01*
X13224929Y-12601336D02*
X13234453Y-12582288D01*
X13234453Y-12582288D02*
X13234453Y-12544193D01*
X13234453Y-12544193D02*
X13224929Y-12525146D01*
X13224929Y-12525146D02*
X13215405Y-12515622D01*
X13215405Y-12515622D02*
X13196358Y-12506098D01*
X13358262Y-12420384D02*
X13377310Y-12420384D01*
X13377310Y-12420384D02*
X13396358Y-12429908D01*
X13396358Y-12429908D02*
X13405882Y-12439431D01*
X13405882Y-12439431D02*
X13415405Y-12458479D01*
X13415405Y-12458479D02*
X13424929Y-12496574D01*
X13424929Y-12496574D02*
X13424929Y-12544193D01*
X13424929Y-12544193D02*
X13415405Y-12582288D01*
X13415405Y-12582288D02*
X13405882Y-12601336D01*
X13405882Y-12601336D02*
X13396358Y-12610860D01*
X13396358Y-12610860D02*
X13377310Y-12620384D01*
X13377310Y-12620384D02*
X13358262Y-12620384D01*
X13358262Y-12620384D02*
X13339215Y-12610860D01*
X13339215Y-12610860D02*
X13329691Y-12601336D01*
X13329691Y-12601336D02*
X13320167Y-12582288D01*
X13320167Y-12582288D02*
X13310643Y-12544193D01*
X13310643Y-12544193D02*
X13310643Y-12496574D01*
X13310643Y-12496574D02*
X13320167Y-12458479D01*
X13320167Y-12458479D02*
X13329691Y-12439431D01*
X13329691Y-12439431D02*
X13339215Y-12429908D01*
X13339215Y-12429908D02*
X13358262Y-12420384D01*
X13548739Y-12420384D02*
X13567786Y-12420384D01*
X13567786Y-12420384D02*
X13586834Y-12429908D01*
X13586834Y-12429908D02*
X13596358Y-12439431D01*
X13596358Y-12439431D02*
X13605882Y-12458479D01*
X13605882Y-12458479D02*
X13615405Y-12496574D01*
X13615405Y-12496574D02*
X13615405Y-12544193D01*
X13615405Y-12544193D02*
X13605882Y-12582288D01*
X13605882Y-12582288D02*
X13596358Y-12601336D01*
X13596358Y-12601336D02*
X13586834Y-12610860D01*
X13586834Y-12610860D02*
X13567786Y-12620384D01*
X13567786Y-12620384D02*
X13548739Y-12620384D01*
X13548739Y-12620384D02*
X13529691Y-12610860D01*
X13529691Y-12610860D02*
X13520167Y-12601336D01*
X13520167Y-12601336D02*
X13510643Y-12582288D01*
X13510643Y-12582288D02*
X13501120Y-12544193D01*
X13501120Y-12544193D02*
X13501120Y-12496574D01*
X13501120Y-12496574D02*
X13510643Y-12458479D01*
X13510643Y-12458479D02*
X13520167Y-12439431D01*
X13520167Y-12439431D02*
X13529691Y-12429908D01*
X13529691Y-12429908D02*
X13548739Y-12420384D01*
X13701120Y-12620384D02*
X13701120Y-12487050D01*
X13701120Y-12506098D02*
X13710643Y-12496574D01*
X13710643Y-12496574D02*
X13729691Y-12487050D01*
X13729691Y-12487050D02*
X13758263Y-12487050D01*
X13758263Y-12487050D02*
X13777310Y-12496574D01*
X13777310Y-12496574D02*
X13786834Y-12515622D01*
X13786834Y-12515622D02*
X13786834Y-12620384D01*
X13786834Y-12515622D02*
X13796358Y-12496574D01*
X13796358Y-12496574D02*
X13815405Y-12487050D01*
X13815405Y-12487050D02*
X13843977Y-12487050D01*
X13843977Y-12487050D02*
X13863024Y-12496574D01*
X13863024Y-12496574D02*
X13872548Y-12515622D01*
X13872548Y-12515622D02*
X13872548Y-12620384D01*
X13967786Y-12620384D02*
X13967786Y-12487050D01*
X13967786Y-12506098D02*
X13977310Y-12496574D01*
X13977310Y-12496574D02*
X13996358Y-12487050D01*
X13996358Y-12487050D02*
X14024929Y-12487050D01*
X14024929Y-12487050D02*
X14043977Y-12496574D01*
X14043977Y-12496574D02*
X14053501Y-12515622D01*
X14053501Y-12515622D02*
X14053501Y-12620384D01*
X14053501Y-12515622D02*
X14063024Y-12496574D01*
X14063024Y-12496574D02*
X14082072Y-12487050D01*
X14082072Y-12487050D02*
X14110643Y-12487050D01*
X14110643Y-12487050D02*
X14129691Y-12496574D01*
X14129691Y-12496574D02*
X14139215Y-12515622D01*
X14139215Y-12515622D02*
X14139215Y-12620384D01*
X14529691Y-12410860D02*
X14358263Y-12668003D01*
X14786834Y-12420384D02*
X14805882Y-12420384D01*
X14805882Y-12420384D02*
X14824929Y-12429908D01*
X14824929Y-12429908D02*
X14834453Y-12439431D01*
X14834453Y-12439431D02*
X14843977Y-12458479D01*
X14843977Y-12458479D02*
X14853501Y-12496574D01*
X14853501Y-12496574D02*
X14853501Y-12544193D01*
X14853501Y-12544193D02*
X14843977Y-12582288D01*
X14843977Y-12582288D02*
X14834453Y-12601336D01*
X14834453Y-12601336D02*
X14824929Y-12610860D01*
X14824929Y-12610860D02*
X14805882Y-12620384D01*
X14805882Y-12620384D02*
X14786834Y-12620384D01*
X14786834Y-12620384D02*
X14767786Y-12610860D01*
X14767786Y-12610860D02*
X14758263Y-12601336D01*
X14758263Y-12601336D02*
X14748739Y-12582288D01*
X14748739Y-12582288D02*
X14739215Y-12544193D01*
X14739215Y-12544193D02*
X14739215Y-12496574D01*
X14739215Y-12496574D02*
X14748739Y-12458479D01*
X14748739Y-12458479D02*
X14758263Y-12439431D01*
X14758263Y-12439431D02*
X14767786Y-12429908D01*
X14767786Y-12429908D02*
X14786834Y-12420384D01*
X14939215Y-12601336D02*
X14948739Y-12610860D01*
X14948739Y-12610860D02*
X14939215Y-12620384D01*
X14939215Y-12620384D02*
X14929691Y-12610860D01*
X14929691Y-12610860D02*
X14939215Y-12601336D01*
X14939215Y-12601336D02*
X14939215Y-12620384D01*
X15072548Y-12420384D02*
X15091596Y-12420384D01*
X15091596Y-12420384D02*
X15110644Y-12429908D01*
X15110644Y-12429908D02*
X15120167Y-12439431D01*
X15120167Y-12439431D02*
X15129691Y-12458479D01*
X15129691Y-12458479D02*
X15139215Y-12496574D01*
X15139215Y-12496574D02*
X15139215Y-12544193D01*
X15139215Y-12544193D02*
X15129691Y-12582288D01*
X15129691Y-12582288D02*
X15120167Y-12601336D01*
X15120167Y-12601336D02*
X15110644Y-12610860D01*
X15110644Y-12610860D02*
X15091596Y-12620384D01*
X15091596Y-12620384D02*
X15072548Y-12620384D01*
X15072548Y-12620384D02*
X15053501Y-12610860D01*
X15053501Y-12610860D02*
X15043977Y-12601336D01*
X15043977Y-12601336D02*
X15034453Y-12582288D01*
X15034453Y-12582288D02*
X15024929Y-12544193D01*
X15024929Y-12544193D02*
X15024929Y-12496574D01*
X15024929Y-12496574D02*
X15034453Y-12458479D01*
X15034453Y-12458479D02*
X15043977Y-12439431D01*
X15043977Y-12439431D02*
X15053501Y-12429908D01*
X15053501Y-12429908D02*
X15072548Y-12420384D01*
X15205882Y-12420384D02*
X15339215Y-12420384D01*
X15339215Y-12420384D02*
X15253501Y-12620384D01*
X15453501Y-12420384D02*
X15472548Y-12420384D01*
X15472548Y-12420384D02*
X15491596Y-12429908D01*
X15491596Y-12429908D02*
X15501120Y-12439431D01*
X15501120Y-12439431D02*
X15510644Y-12458479D01*
X15510644Y-12458479D02*
X15520167Y-12496574D01*
X15520167Y-12496574D02*
X15520167Y-12544193D01*
X15520167Y-12544193D02*
X15510644Y-12582288D01*
X15510644Y-12582288D02*
X15501120Y-12601336D01*
X15501120Y-12601336D02*
X15491596Y-12610860D01*
X15491596Y-12610860D02*
X15472548Y-12620384D01*
X15472548Y-12620384D02*
X15453501Y-12620384D01*
X15453501Y-12620384D02*
X15434453Y-12610860D01*
X15434453Y-12610860D02*
X15424929Y-12601336D01*
X15424929Y-12601336D02*
X15415406Y-12582288D01*
X15415406Y-12582288D02*
X15405882Y-12544193D01*
X15405882Y-12544193D02*
X15405882Y-12496574D01*
X15405882Y-12496574D02*
X15415406Y-12458479D01*
X15415406Y-12458479D02*
X15424929Y-12439431D01*
X15424929Y-12439431D02*
X15434453Y-12429908D01*
X15434453Y-12429908D02*
X15453501Y-12420384D01*
X15615406Y-12620384D02*
X15653501Y-12620384D01*
X15653501Y-12620384D02*
X15672548Y-12610860D01*
X15672548Y-12610860D02*
X15682072Y-12601336D01*
X15682072Y-12601336D02*
X15701120Y-12572765D01*
X15701120Y-12572765D02*
X15710644Y-12534669D01*
X15710644Y-12534669D02*
X15710644Y-12458479D01*
X15710644Y-12458479D02*
X15701120Y-12439431D01*
X15701120Y-12439431D02*
X15691596Y-12429908D01*
X15691596Y-12429908D02*
X15672548Y-12420384D01*
X15672548Y-12420384D02*
X15634453Y-12420384D01*
X15634453Y-12420384D02*
X15615406Y-12429908D01*
X15615406Y-12429908D02*
X15605882Y-12439431D01*
X15605882Y-12439431D02*
X15596358Y-12458479D01*
X15596358Y-12458479D02*
X15596358Y-12506098D01*
X15596358Y-12506098D02*
X15605882Y-12525146D01*
X15605882Y-12525146D02*
X15615406Y-12534669D01*
X15615406Y-12534669D02*
X15634453Y-12544193D01*
X15634453Y-12544193D02*
X15672548Y-12544193D01*
X15672548Y-12544193D02*
X15691596Y-12534669D01*
X15691596Y-12534669D02*
X15701120Y-12525146D01*
X15701120Y-12525146D02*
X15710644Y-12506098D01*
X15786834Y-12420384D02*
X15786834Y-12458479D01*
X15863025Y-12420384D02*
X15863025Y-12458479D01*
X16158263Y-12696574D02*
X16148739Y-12687050D01*
X16148739Y-12687050D02*
X16129691Y-12658479D01*
X16129691Y-12658479D02*
X16120168Y-12639431D01*
X16120168Y-12639431D02*
X16110644Y-12610860D01*
X16110644Y-12610860D02*
X16101120Y-12563241D01*
X16101120Y-12563241D02*
X16101120Y-12525146D01*
X16101120Y-12525146D02*
X16110644Y-12477527D01*
X16110644Y-12477527D02*
X16120168Y-12448955D01*
X16120168Y-12448955D02*
X16129691Y-12429908D01*
X16129691Y-12429908D02*
X16148739Y-12401336D01*
X16148739Y-12401336D02*
X16158263Y-12391812D01*
X16339215Y-12620384D02*
X16224929Y-12620384D01*
X16282072Y-12620384D02*
X16282072Y-12420384D01*
X16282072Y-12420384D02*
X16263025Y-12448955D01*
X16263025Y-12448955D02*
X16243977Y-12468003D01*
X16243977Y-12468003D02*
X16224929Y-12477527D01*
X16577310Y-12620384D02*
X16577310Y-12420384D01*
X16663025Y-12620384D02*
X16663025Y-12515622D01*
X16663025Y-12515622D02*
X16653501Y-12496574D01*
X16653501Y-12496574D02*
X16634453Y-12487050D01*
X16634453Y-12487050D02*
X16605882Y-12487050D01*
X16605882Y-12487050D02*
X16586834Y-12496574D01*
X16586834Y-12496574D02*
X16577310Y-12506098D01*
X16786834Y-12620384D02*
X16767787Y-12610860D01*
X16767787Y-12610860D02*
X16758263Y-12601336D01*
X16758263Y-12601336D02*
X16748739Y-12582288D01*
X16748739Y-12582288D02*
X16748739Y-12525146D01*
X16748739Y-12525146D02*
X16758263Y-12506098D01*
X16758263Y-12506098D02*
X16767787Y-12496574D01*
X16767787Y-12496574D02*
X16786834Y-12487050D01*
X16786834Y-12487050D02*
X16815406Y-12487050D01*
X16815406Y-12487050D02*
X16834453Y-12496574D01*
X16834453Y-12496574D02*
X16843977Y-12506098D01*
X16843977Y-12506098D02*
X16853501Y-12525146D01*
X16853501Y-12525146D02*
X16853501Y-12582288D01*
X16853501Y-12582288D02*
X16843977Y-12601336D01*
X16843977Y-12601336D02*
X16834453Y-12610860D01*
X16834453Y-12610860D02*
X16815406Y-12620384D01*
X16815406Y-12620384D02*
X16786834Y-12620384D01*
X16967787Y-12620384D02*
X16948739Y-12610860D01*
X16948739Y-12610860D02*
X16939215Y-12591812D01*
X16939215Y-12591812D02*
X16939215Y-12420384D01*
X17120168Y-12610860D02*
X17101120Y-12620384D01*
X17101120Y-12620384D02*
X17063025Y-12620384D01*
X17063025Y-12620384D02*
X17043977Y-12610860D01*
X17043977Y-12610860D02*
X17034453Y-12591812D01*
X17034453Y-12591812D02*
X17034453Y-12515622D01*
X17034453Y-12515622D02*
X17043977Y-12496574D01*
X17043977Y-12496574D02*
X17063025Y-12487050D01*
X17063025Y-12487050D02*
X17101120Y-12487050D01*
X17101120Y-12487050D02*
X17120168Y-12496574D01*
X17120168Y-12496574D02*
X17129692Y-12515622D01*
X17129692Y-12515622D02*
X17129692Y-12534669D01*
X17129692Y-12534669D02*
X17034453Y-12553717D01*
X17196358Y-12696574D02*
X17205882Y-12687050D01*
X17205882Y-12687050D02*
X17224930Y-12658479D01*
X17224930Y-12658479D02*
X17234453Y-12639431D01*
X17234453Y-12639431D02*
X17243977Y-12610860D01*
X17243977Y-12610860D02*
X17253501Y-12563241D01*
X17253501Y-12563241D02*
X17253501Y-12525146D01*
X17253501Y-12525146D02*
X17243977Y-12477527D01*
X17243977Y-12477527D02*
X17234453Y-12448955D01*
X17234453Y-12448955D02*
X17224930Y-12429908D01*
X17224930Y-12429908D02*
X17205882Y-12401336D01*
X17205882Y-12401336D02*
X17196358Y-12391812D01*
M02*
