M48
; DRILL file {KiCad 8.0.2} date 2024-06-13T18:35:33+0530
; FORMAT={-:-/ absolute / inch / decimal}
; #@! TF.CreationDate,2024-06-13T18:35:33+05:30
; #@! TF.GenerationSoftware,Kicad,Pcbnew,8.0.2
; #@! TF.FileFunction,Plated,1,2,PTH
FMAT,2
INCH
; #@! TA.AperFunction,Plated,PTH,ViaDrill
T1C0.0118
; #@! TA.AperFunction,Plated,PTH,ComponentDrill
T2C0.0276
; #@! TA.AperFunction,Plated,PTH,ComponentDrill
T3C0.0315
; #@! TA.AperFunction,Plated,PTH,ComponentDrill
T4C0.0354
; #@! TA.AperFunction,Plated,PTH,ComponentDrill
T5C0.0394
; #@! TA.AperFunction,Plated,PTH,ComponentDrill
T6C0.0709
%
G90
G05
T1
X5.2464Y-3.885
X5.3314Y-3.965
X6.215Y-3.38
X6.215Y-3.44
X6.495Y-3.3164
X6.495Y-3.3636
X6.52Y-3.68
X6.73Y-3.67
T2
X5.27Y-3.53
X5.27Y-3.83
X5.275Y-3.9352
X5.275Y-4.01
X5.415Y-3.535
X5.715Y-3.535
X5.85Y-3.535
X6.15Y-3.535
T3
X5.445Y-3.7148
X5.445Y-4.0148
X5.545Y-3.7148
X5.545Y-4.0148
X6.045Y-3.7148
X6.045Y-4.0148
X6.145Y-3.7148
X6.145Y-4.0148
X6.2974Y-3.765
X6.5926Y-3.765
T4
X5.0266Y-3.7866
X5.0266Y-3.9834
X5.04Y-3.59
X5.125Y-3.885
X5.14Y-3.59
X6.2828Y-3.4116
X6.2828Y-3.6084
X6.3813Y-3.51
T5
X6.3097Y-3.9745
X6.9003Y-3.9745
X6.94Y-3.555
X7.2392Y-3.555
T6
X5.8241Y-3.232
M30
